<mxfile host="app.diagrams.net" modified="2023-09-07T11:49:55.230Z" agent="Mozilla/5.0 (Windows NT 10.0; Win64; x64) AppleWebKit/537.36 (KHTML, like Gecko) Chrome/116.0.0.0 Safari/537.36 Edg/116.0.1938.69" etag="M_IsHAGEhJZ1ENzbx-Rs" version="21.7.2" type="github" pages="8">
  <diagram name="Page-1" id="58cdce13-f638-feb5-8d6f-7d28b1aa9fa0">
    <mxGraphModel dx="1173" dy="819" grid="1" gridSize="10" guides="1" tooltips="1" connect="1" arrows="1" fold="1" page="1" pageScale="1" pageWidth="1100" pageHeight="850" background="none" math="0" shadow="0">
      <root>
        <mxCell id="0" />
        <mxCell id="1" parent="0" />
        <mxCell id="dy0ZijnG7XCbSkk_zbgW-2" value="" style="ellipse;whiteSpace=wrap;html=1;aspect=fixed;" parent="1" vertex="1">
          <mxGeometry x="440" y="210" width="110" height="110" as="geometry" />
        </mxCell>
        <mxCell id="dy0ZijnG7XCbSkk_zbgW-4" style="edgeStyle=orthogonalEdgeStyle;rounded=0;orthogonalLoop=1;jettySize=auto;html=1;entryX=0.5;entryY=0;entryDx=0;entryDy=0;" parent="1" source="dy0ZijnG7XCbSkk_zbgW-3" target="dy0ZijnG7XCbSkk_zbgW-2" edge="1">
          <mxGeometry relative="1" as="geometry" />
        </mxCell>
        <mxCell id="dy0ZijnG7XCbSkk_zbgW-5" value="取指令" style="edgeLabel;html=1;align=center;verticalAlign=middle;resizable=0;points=[];" parent="dy0ZijnG7XCbSkk_zbgW-4" vertex="1" connectable="0">
          <mxGeometry x="-0.0222" y="2" relative="1" as="geometry">
            <mxPoint as="offset" />
          </mxGeometry>
        </mxCell>
        <mxCell id="dy0ZijnG7XCbSkk_zbgW-3" value="开始" style="rounded=1;whiteSpace=wrap;html=1;" parent="1" vertex="1">
          <mxGeometry x="435" y="90" width="120" height="60" as="geometry" />
        </mxCell>
        <mxCell id="dy0ZijnG7XCbSkk_zbgW-6" value="set wr" style="ellipse;whiteSpace=wrap;html=1;aspect=fixed;" parent="1" vertex="1">
          <mxGeometry x="220" y="360" width="110" height="110" as="geometry" />
        </mxCell>
        <mxCell id="dy0ZijnG7XCbSkk_zbgW-7" value="" style="endArrow=classic;html=1;rounded=0;exitX=0;exitY=0.5;exitDx=0;exitDy=0;" parent="1" source="dy0ZijnG7XCbSkk_zbgW-2" target="dy0ZijnG7XCbSkk_zbgW-6" edge="1">
          <mxGeometry width="50" height="50" relative="1" as="geometry">
            <mxPoint x="520" y="450" as="sourcePoint" />
            <mxPoint x="570" y="400" as="targetPoint" />
          </mxGeometry>
        </mxCell>
        <mxCell id="dy0ZijnG7XCbSkk_zbgW-8" value="Init CIM" style="edgeLabel;html=1;align=center;verticalAlign=middle;resizable=0;points=[];" parent="dy0ZijnG7XCbSkk_zbgW-7" vertex="1" connectable="0">
          <mxGeometry x="-0.0203" y="1" relative="1" as="geometry">
            <mxPoint as="offset" />
          </mxGeometry>
        </mxCell>
        <mxCell id="dy0ZijnG7XCbSkk_zbgW-9" value="" style="ellipse;whiteSpace=wrap;html=1;aspect=fixed;" parent="1" vertex="1">
          <mxGeometry x="370" y="380" width="110" height="110" as="geometry" />
        </mxCell>
        <mxCell id="dy0ZijnG7XCbSkk_zbgW-10" value="" style="endArrow=classic;html=1;rounded=0;exitX=0;exitY=1;exitDx=0;exitDy=0;entryX=0.5;entryY=0;entryDx=0;entryDy=0;" parent="1" source="dy0ZijnG7XCbSkk_zbgW-2" target="dy0ZijnG7XCbSkk_zbgW-9" edge="1">
          <mxGeometry width="50" height="50" relative="1" as="geometry">
            <mxPoint x="520" y="450" as="sourcePoint" />
            <mxPoint x="570" y="400" as="targetPoint" />
          </mxGeometry>
        </mxCell>
        <mxCell id="dy0ZijnG7XCbSkk_zbgW-13" value="Wr InBuf" style="edgeLabel;html=1;align=center;verticalAlign=middle;resizable=0;points=[];" parent="dy0ZijnG7XCbSkk_zbgW-10" vertex="1" connectable="0">
          <mxGeometry x="-0.244" y="2" relative="1" as="geometry">
            <mxPoint as="offset" />
          </mxGeometry>
        </mxCell>
        <mxCell id="dy0ZijnG7XCbSkk_zbgW-14" value="set wr" style="ellipse;whiteSpace=wrap;html=1;aspect=fixed;" parent="1" vertex="1">
          <mxGeometry x="510" y="380" width="110" height="110" as="geometry" />
        </mxCell>
        <mxCell id="dy0ZijnG7XCbSkk_zbgW-15" value="" style="endArrow=classic;html=1;rounded=0;exitX=1;exitY=1;exitDx=0;exitDy=0;entryX=0.5;entryY=0;entryDx=0;entryDy=0;" parent="1" source="dy0ZijnG7XCbSkk_zbgW-2" target="dy0ZijnG7XCbSkk_zbgW-14" edge="1">
          <mxGeometry width="50" height="50" relative="1" as="geometry">
            <mxPoint x="520" y="450" as="sourcePoint" />
            <mxPoint x="570" y="400" as="targetPoint" />
          </mxGeometry>
        </mxCell>
        <mxCell id="dy0ZijnG7XCbSkk_zbgW-16" value="Wr Kernel" style="edgeLabel;html=1;align=center;verticalAlign=middle;resizable=0;points=[];" parent="dy0ZijnG7XCbSkk_zbgW-15" vertex="1" connectable="0">
          <mxGeometry x="-0.307" relative="1" as="geometry">
            <mxPoint as="offset" />
          </mxGeometry>
        </mxCell>
        <mxCell id="dy0ZijnG7XCbSkk_zbgW-17" value="set compute" style="ellipse;whiteSpace=wrap;html=1;aspect=fixed;" parent="1" vertex="1">
          <mxGeometry x="670" y="330" width="110" height="110" as="geometry" />
        </mxCell>
        <mxCell id="dy0ZijnG7XCbSkk_zbgW-18" value="" style="endArrow=classic;html=1;rounded=0;exitX=1;exitY=0.5;exitDx=0;exitDy=0;entryX=0;entryY=0;entryDx=0;entryDy=0;" parent="1" source="dy0ZijnG7XCbSkk_zbgW-2" target="dy0ZijnG7XCbSkk_zbgW-17" edge="1">
          <mxGeometry width="50" height="50" relative="1" as="geometry">
            <mxPoint x="590" y="300" as="sourcePoint" />
            <mxPoint x="640" y="250" as="targetPoint" />
          </mxGeometry>
        </mxCell>
        <mxCell id="dy0ZijnG7XCbSkk_zbgW-19" value="Forward" style="edgeLabel;html=1;align=center;verticalAlign=middle;resizable=0;points=[];" parent="dy0ZijnG7XCbSkk_zbgW-18" vertex="1" connectable="0">
          <mxGeometry x="-0.1788" y="-2" relative="1" as="geometry">
            <mxPoint as="offset" />
          </mxGeometry>
        </mxCell>
        <mxCell id="12r_DEiwNfApsY3d-gSk-1" value="set wr" style="ellipse;whiteSpace=wrap;html=1;aspect=fixed;" parent="1" vertex="1">
          <mxGeometry x="570" y="500" width="110" height="110" as="geometry" />
        </mxCell>
        <mxCell id="12r_DEiwNfApsY3d-gSk-4" value="set wr" style="ellipse;whiteSpace=wrap;html=1;aspect=fixed;" parent="1" vertex="1">
          <mxGeometry x="770" y="425" width="110" height="110" as="geometry" />
        </mxCell>
      </root>
    </mxGraphModel>
  </diagram>
  <diagram id="9HQV4eKmnRMZVXrboICk" name="CIM read &amp; write">
    <mxGraphModel dx="2023" dy="819" grid="1" gridSize="10" guides="1" tooltips="1" connect="1" arrows="1" fold="1" page="1" pageScale="1" pageWidth="850" pageHeight="1100" math="0" shadow="0">
      <root>
        <mxCell id="0" />
        <mxCell id="1" parent="0" />
        <mxCell id="2D5i8ZFtOIyMSIkhYLKL-1" value="CIM" style="rounded=0;whiteSpace=wrap;html=1;" parent="1" vertex="1">
          <mxGeometry x="530" y="110" width="230" height="460" as="geometry" />
        </mxCell>
        <mxCell id="2D5i8ZFtOIyMSIkhYLKL-27" style="edgeStyle=orthogonalEdgeStyle;rounded=0;orthogonalLoop=1;jettySize=auto;html=1;entryX=-0.016;entryY=0.089;entryDx=0;entryDy=0;entryPerimeter=0;" parent="1" source="2D5i8ZFtOIyMSIkhYLKL-2" target="2D5i8ZFtOIyMSIkhYLKL-1" edge="1">
          <mxGeometry relative="1" as="geometry" />
        </mxCell>
        <mxCell id="2D5i8ZFtOIyMSIkhYLKL-2" value="mode_ctr" style="rounded=0;whiteSpace=wrap;html=1;" parent="1" vertex="1">
          <mxGeometry x="330" y="120" width="120" height="60" as="geometry" />
        </mxCell>
        <mxCell id="2D5i8ZFtOIyMSIkhYLKL-4" value="op_ctr" style="rounded=0;whiteSpace=wrap;html=1;" parent="1" vertex="1">
          <mxGeometry x="330" y="190" width="120" height="60" as="geometry" />
        </mxCell>
        <mxCell id="2D5i8ZFtOIyMSIkhYLKL-7" value="com_ctr" style="rounded=0;whiteSpace=wrap;html=1;" parent="1" vertex="1">
          <mxGeometry x="330" y="260" width="120" height="60" as="geometry" />
        </mxCell>
        <mxCell id="2D5i8ZFtOIyMSIkhYLKL-21" style="edgeStyle=orthogonalEdgeStyle;rounded=0;orthogonalLoop=1;jettySize=auto;html=1;entryX=0.5;entryY=0;entryDx=0;entryDy=0;" parent="1" source="2D5i8ZFtOIyMSIkhYLKL-13" target="2D5i8ZFtOIyMSIkhYLKL-20" edge="1">
          <mxGeometry relative="1" as="geometry" />
        </mxCell>
        <mxCell id="2D5i8ZFtOIyMSIkhYLKL-13" value="ex" style="rounded=0;whiteSpace=wrap;html=1;" parent="1" vertex="1">
          <mxGeometry x="60" y="120" width="230" height="240" as="geometry" />
        </mxCell>
        <mxCell id="2D5i8ZFtOIyMSIkhYLKL-14" value="" style="endArrow=classic;html=1;rounded=0;" parent="1" target="2D5i8ZFtOIyMSIkhYLKL-2" edge="1">
          <mxGeometry width="50" height="50" relative="1" as="geometry">
            <mxPoint x="290" y="151" as="sourcePoint" />
            <mxPoint x="450" y="400" as="targetPoint" />
          </mxGeometry>
        </mxCell>
        <mxCell id="2D5i8ZFtOIyMSIkhYLKL-18" value="ib" style="rounded=0;whiteSpace=wrap;html=1;" parent="1" vertex="1">
          <mxGeometry x="170" y="480" width="150" height="100" as="geometry" />
        </mxCell>
        <mxCell id="2D5i8ZFtOIyMSIkhYLKL-23" style="edgeStyle=orthogonalEdgeStyle;rounded=0;orthogonalLoop=1;jettySize=auto;html=1;entryX=0.406;entryY=-0.011;entryDx=0;entryDy=0;entryPerimeter=0;" parent="1" source="2D5i8ZFtOIyMSIkhYLKL-20" target="2D5i8ZFtOIyMSIkhYLKL-18" edge="1">
          <mxGeometry relative="1" as="geometry" />
        </mxCell>
        <mxCell id="2D5i8ZFtOIyMSIkhYLKL-20" value="ib_ctr" style="rounded=0;whiteSpace=wrap;html=1;" parent="1" vertex="1">
          <mxGeometry x="170" y="380" width="120" height="70" as="geometry" />
        </mxCell>
        <mxCell id="2D5i8ZFtOIyMSIkhYLKL-24" value="" style="endArrow=classic;html=1;rounded=0;entryX=0;entryY=0.5;entryDx=0;entryDy=0;" parent="1" source="DqawQz8g9QCARewmcSMG-1" target="2D5i8ZFtOIyMSIkhYLKL-18" edge="1">
          <mxGeometry width="50" height="50" relative="1" as="geometry">
            <mxPoint x="50" y="530" as="sourcePoint" />
            <mxPoint x="100" y="490" as="targetPoint" />
          </mxGeometry>
        </mxCell>
        <mxCell id="2D5i8ZFtOIyMSIkhYLKL-31" value="ib2op" style="rounded=0;whiteSpace=wrap;html=1;" parent="1" vertex="1">
          <mxGeometry x="350" y="480" width="120" height="50" as="geometry" />
        </mxCell>
        <mxCell id="2D5i8ZFtOIyMSIkhYLKL-32" value="" style="endArrow=classic;html=1;rounded=0;entryX=0;entryY=0.5;entryDx=0;entryDy=0;exitX=1;exitY=0.25;exitDx=0;exitDy=0;" parent="1" source="2D5i8ZFtOIyMSIkhYLKL-18" target="2D5i8ZFtOIyMSIkhYLKL-31" edge="1">
          <mxGeometry width="50" height="50" relative="1" as="geometry">
            <mxPoint x="320" y="510" as="sourcePoint" />
            <mxPoint x="348.26000000000005" y="509.7300000000001" as="targetPoint" />
          </mxGeometry>
        </mxCell>
        <mxCell id="2D5i8ZFtOIyMSIkhYLKL-33" value="" style="endArrow=classic;html=1;rounded=0;exitX=1;exitY=0.5;exitDx=0;exitDy=0;entryX=-0.003;entryY=0.858;entryDx=0;entryDy=0;entryPerimeter=0;" parent="1" source="2D5i8ZFtOIyMSIkhYLKL-31" target="2D5i8ZFtOIyMSIkhYLKL-1" edge="1">
          <mxGeometry width="50" height="50" relative="1" as="geometry">
            <mxPoint x="360" y="470" as="sourcePoint" />
            <mxPoint x="410" y="420" as="targetPoint" />
          </mxGeometry>
        </mxCell>
        <mxCell id="2D5i8ZFtOIyMSIkhYLKL-34" value="ib2com" style="rounded=0;whiteSpace=wrap;html=1;" parent="1" vertex="1">
          <mxGeometry x="350" y="540" width="120" height="40" as="geometry" />
        </mxCell>
        <mxCell id="2D5i8ZFtOIyMSIkhYLKL-35" value="" style="endArrow=classic;html=1;rounded=0;exitX=1.011;exitY=0.795;exitDx=0;exitDy=0;exitPerimeter=0;entryX=0;entryY=0.5;entryDx=0;entryDy=0;" parent="1" source="2D5i8ZFtOIyMSIkhYLKL-18" target="2D5i8ZFtOIyMSIkhYLKL-34" edge="1">
          <mxGeometry width="50" height="50" relative="1" as="geometry">
            <mxPoint x="350" y="550" as="sourcePoint" />
            <mxPoint x="400" y="500" as="targetPoint" />
          </mxGeometry>
        </mxCell>
        <mxCell id="2D5i8ZFtOIyMSIkhYLKL-36" value="" style="endArrow=classic;html=1;rounded=0;exitX=1;exitY=0.5;exitDx=0;exitDy=0;entryX=-0.008;entryY=0.977;entryDx=0;entryDy=0;entryPerimeter=0;" parent="1" source="2D5i8ZFtOIyMSIkhYLKL-34" target="2D5i8ZFtOIyMSIkhYLKL-1" edge="1">
          <mxGeometry width="50" height="50" relative="1" as="geometry">
            <mxPoint x="350" y="550" as="sourcePoint" />
            <mxPoint x="400" y="500" as="targetPoint" />
          </mxGeometry>
        </mxCell>
        <mxCell id="2D5i8ZFtOIyMSIkhYLKL-38" style="edgeStyle=orthogonalEdgeStyle;rounded=0;orthogonalLoop=1;jettySize=auto;html=1;entryX=0;entryY=0.5;entryDx=0;entryDy=0;" parent="1" source="2D5i8ZFtOIyMSIkhYLKL-37" target="2D5i8ZFtOIyMSIkhYLKL-13" edge="1">
          <mxGeometry relative="1" as="geometry" />
        </mxCell>
        <mxCell id="2D5i8ZFtOIyMSIkhYLKL-37" value="id" style="rounded=0;whiteSpace=wrap;html=1;" parent="1" vertex="1">
          <mxGeometry x="-70" y="120" width="90" height="240" as="geometry" />
        </mxCell>
        <mxCell id="2D5i8ZFtOIyMSIkhYLKL-41" value="" style="endArrow=classic;html=1;rounded=0;entryX=0;entryY=0.5;entryDx=0;entryDy=0;" parent="1" target="2D5i8ZFtOIyMSIkhYLKL-37" edge="1">
          <mxGeometry width="50" height="50" relative="1" as="geometry">
            <mxPoint x="-180" y="239.41" as="sourcePoint" />
            <mxPoint x="-90" y="239.41" as="targetPoint" />
          </mxGeometry>
        </mxCell>
        <mxCell id="DqawQz8g9QCARewmcSMG-8" value="Command Bus" style="edgeLabel;html=1;align=center;verticalAlign=middle;resizable=0;points=[];" parent="2D5i8ZFtOIyMSIkhYLKL-41" vertex="1" connectable="0">
          <mxGeometry x="-0.0707" y="-2" relative="1" as="geometry">
            <mxPoint y="-12" as="offset" />
          </mxGeometry>
        </mxCell>
        <mxCell id="2D5i8ZFtOIyMSIkhYLKL-43" value="" style="endArrow=classic;html=1;rounded=0;exitX=0;exitY=0.75;exitDx=0;exitDy=0;entryX=1.016;entryY=0.188;entryDx=0;entryDy=0;entryPerimeter=0;" parent="1" source="2D5i8ZFtOIyMSIkhYLKL-2" target="2D5i8ZFtOIyMSIkhYLKL-13" edge="1">
          <mxGeometry width="50" height="50" relative="1" as="geometry">
            <mxPoint x="270" y="420" as="sourcePoint" />
            <mxPoint x="320" y="370" as="targetPoint" />
          </mxGeometry>
        </mxCell>
        <mxCell id="flfmLBf8CQJW9hlJAoGs-1" value="" style="endArrow=classic;html=1;rounded=0;exitX=1;exitY=0.5;exitDx=0;exitDy=0;entryX=-0.002;entryY=0.238;entryDx=0;entryDy=0;entryPerimeter=0;" parent="1" source="2D5i8ZFtOIyMSIkhYLKL-4" target="2D5i8ZFtOIyMSIkhYLKL-1" edge="1">
          <mxGeometry width="50" height="50" relative="1" as="geometry">
            <mxPoint x="340" y="340" as="sourcePoint" />
            <mxPoint x="390" y="290" as="targetPoint" />
          </mxGeometry>
        </mxCell>
        <mxCell id="flfmLBf8CQJW9hlJAoGs-2" value="" style="endArrow=classic;html=1;rounded=0;exitX=1.001;exitY=0.458;exitDx=0;exitDy=0;exitPerimeter=0;" parent="1" edge="1">
          <mxGeometry width="50" height="50" relative="1" as="geometry">
            <mxPoint x="290" y="220" as="sourcePoint" />
            <mxPoint x="330" y="220" as="targetPoint" />
          </mxGeometry>
        </mxCell>
        <mxCell id="flfmLBf8CQJW9hlJAoGs-3" value="" style="endArrow=classic;html=1;rounded=0;exitX=1;exitY=0.5;exitDx=0;exitDy=0;entryX=-0.002;entryY=0.238;entryDx=0;entryDy=0;entryPerimeter=0;" parent="1" edge="1">
          <mxGeometry width="50" height="50" relative="1" as="geometry">
            <mxPoint x="450" y="290.5" as="sourcePoint" />
            <mxPoint x="530" y="289.5" as="targetPoint" />
          </mxGeometry>
        </mxCell>
        <mxCell id="flfmLBf8CQJW9hlJAoGs-4" value="" style="endArrow=classic;html=1;rounded=0;exitX=1;exitY=0.5;exitDx=0;exitDy=0;" parent="1" edge="1">
          <mxGeometry width="50" height="50" relative="1" as="geometry">
            <mxPoint x="290" y="290.5" as="sourcePoint" />
            <mxPoint x="330" y="290" as="targetPoint" />
          </mxGeometry>
        </mxCell>
        <mxCell id="flfmLBf8CQJW9hlJAoGs-5" value="test_ctr" style="rounded=0;whiteSpace=wrap;html=1;dashed=1;" parent="1" vertex="1">
          <mxGeometry x="330" y="330" width="120" height="60" as="geometry" />
        </mxCell>
        <mxCell id="flfmLBf8CQJW9hlJAoGs-6" value="" style="endArrow=classic;html=1;rounded=0;exitX=1;exitY=0.5;exitDx=0;exitDy=0;" parent="1" edge="1">
          <mxGeometry width="50" height="50" relative="1" as="geometry">
            <mxPoint x="290" y="350.5" as="sourcePoint" />
            <mxPoint x="330" y="350" as="targetPoint" />
          </mxGeometry>
        </mxCell>
        <mxCell id="flfmLBf8CQJW9hlJAoGs-7" value="" style="endArrow=classic;html=1;rounded=0;exitX=1;exitY=0.5;exitDx=0;exitDy=0;entryX=0;entryY=0.522;entryDx=0;entryDy=0;entryPerimeter=0;" parent="1" target="2D5i8ZFtOIyMSIkhYLKL-1" edge="1">
          <mxGeometry width="50" height="50" relative="1" as="geometry">
            <mxPoint x="450" y="350.5" as="sourcePoint" />
            <mxPoint x="490" y="350" as="targetPoint" />
          </mxGeometry>
        </mxCell>
        <mxCell id="DqawQz8g9QCARewmcSMG-3" value="" style="endArrow=classic;html=1;rounded=0;entryX=0;entryY=0.25;entryDx=0;entryDy=0;" parent="1" edge="1">
          <mxGeometry width="50" height="50" relative="1" as="geometry">
            <mxPoint x="-180" y="549" as="sourcePoint" />
            <mxPoint x="40" y="549" as="targetPoint" />
          </mxGeometry>
        </mxCell>
        <mxCell id="DqawQz8g9QCARewmcSMG-10" value="Data Bus" style="edgeLabel;html=1;align=center;verticalAlign=middle;resizable=0;points=[];" parent="DqawQz8g9QCARewmcSMG-3" vertex="1" connectable="0">
          <mxGeometry x="0.1605" y="2" relative="1" as="geometry">
            <mxPoint x="-14" y="-7" as="offset" />
          </mxGeometry>
        </mxCell>
        <mxCell id="DqawQz8g9QCARewmcSMG-4" value="" style="endArrow=classic;html=1;rounded=0;" parent="1" edge="1">
          <mxGeometry width="50" height="50" relative="1" as="geometry">
            <mxPoint x="90" y="361" as="sourcePoint" />
            <mxPoint x="90" y="500" as="targetPoint" />
          </mxGeometry>
        </mxCell>
        <mxCell id="DqawQz8g9QCARewmcSMG-6" value="" style="endArrow=classic;html=1;rounded=0;entryX=0;entryY=0.5;entryDx=0;entryDy=0;" parent="1" target="DqawQz8g9QCARewmcSMG-1" edge="1">
          <mxGeometry width="50" height="50" relative="1" as="geometry">
            <mxPoint x="50" y="530" as="sourcePoint" />
            <mxPoint x="170" y="530" as="targetPoint" />
          </mxGeometry>
        </mxCell>
        <mxCell id="DqawQz8g9QCARewmcSMG-1" value="MUX" style="rounded=0;whiteSpace=wrap;html=1;" parent="1" vertex="1">
          <mxGeometry x="40" y="495" width="110" height="70" as="geometry" />
        </mxCell>
        <mxCell id="DqawQz8g9QCARewmcSMG-7" value="" style="endArrow=classic;html=1;rounded=0;entryX=0;entryY=0.25;entryDx=0;entryDy=0;" parent="1" edge="1">
          <mxGeometry width="50" height="50" relative="1" as="geometry">
            <mxPoint x="-180" y="520" as="sourcePoint" />
            <mxPoint x="40" y="520" as="targetPoint" />
          </mxGeometry>
        </mxCell>
        <mxCell id="DqawQz8g9QCARewmcSMG-9" value="Chip2Chip Datapath" style="edgeLabel;html=1;align=center;verticalAlign=middle;resizable=0;points=[];" parent="DqawQz8g9QCARewmcSMG-7" vertex="1" connectable="0">
          <mxGeometry x="0.0527" y="3" relative="1" as="geometry">
            <mxPoint x="-1" y="-12" as="offset" />
          </mxGeometry>
        </mxCell>
      </root>
    </mxGraphModel>
  </diagram>
  <diagram id="s69LHcyqoX7O4huTZ_aL" name="Chip">
    <mxGraphModel dx="1173" dy="819" grid="1" gridSize="10" guides="1" tooltips="1" connect="1" arrows="1" fold="1" page="1" pageScale="1" pageWidth="850" pageHeight="1100" math="0" shadow="0">
      <root>
        <mxCell id="0" />
        <mxCell id="1" parent="0" />
        <mxCell id="nDI0iuyNL2uJYVKfgoxX-11" value="" style="rounded=0;whiteSpace=wrap;html=1;fillColor=none;dashed=1;" parent="1" vertex="1">
          <mxGeometry x="305" y="180" width="295" height="210" as="geometry" />
        </mxCell>
        <mxCell id="nDI0iuyNL2uJYVKfgoxX-9" style="edgeStyle=orthogonalEdgeStyle;rounded=0;orthogonalLoop=1;jettySize=auto;html=1;entryX=0;entryY=0.5;entryDx=0;entryDy=0;" parent="1" source="nDI0iuyNL2uJYVKfgoxX-1" target="nDI0iuyNL2uJYVKfgoxX-2" edge="1">
          <mxGeometry relative="1" as="geometry" />
        </mxCell>
        <mxCell id="nDI0iuyNL2uJYVKfgoxX-10" style="edgeStyle=orthogonalEdgeStyle;rounded=0;orthogonalLoop=1;jettySize=auto;html=1;entryX=0;entryY=0.5;entryDx=0;entryDy=0;" parent="1" source="nDI0iuyNL2uJYVKfgoxX-1" target="nDI0iuyNL2uJYVKfgoxX-3" edge="1">
          <mxGeometry relative="1" as="geometry" />
        </mxCell>
        <mxCell id="nDI0iuyNL2uJYVKfgoxX-1" value="Attention" style="whiteSpace=wrap;html=1;aspect=fixed;" parent="1" vertex="1">
          <mxGeometry x="320" y="230" width="110" height="110" as="geometry" />
        </mxCell>
        <mxCell id="nDI0iuyNL2uJYVKfgoxX-18" style="edgeStyle=orthogonalEdgeStyle;rounded=0;orthogonalLoop=1;jettySize=auto;html=1;" parent="1" source="nDI0iuyNL2uJYVKfgoxX-2" edge="1">
          <mxGeometry relative="1" as="geometry">
            <mxPoint x="680" y="225" as="targetPoint" />
          </mxGeometry>
        </mxCell>
        <mxCell id="nDI0iuyNL2uJYVKfgoxX-20" value="expert chosen" style="edgeLabel;html=1;align=center;verticalAlign=middle;resizable=0;points=[];" parent="nDI0iuyNL2uJYVKfgoxX-18" vertex="1" connectable="0">
          <mxGeometry x="0.1719" y="3" relative="1" as="geometry">
            <mxPoint x="2" y="-12" as="offset" />
          </mxGeometry>
        </mxCell>
        <mxCell id="nDI0iuyNL2uJYVKfgoxX-2" value="Pre-Gated" style="rounded=0;whiteSpace=wrap;html=1;" parent="1" vertex="1">
          <mxGeometry x="480" y="200" width="100" height="50" as="geometry" />
        </mxCell>
        <mxCell id="nDI0iuyNL2uJYVKfgoxX-3" value="FFN" style="whiteSpace=wrap;html=1;aspect=fixed;" parent="1" vertex="1">
          <mxGeometry x="480" y="280" width="100" height="100" as="geometry" />
        </mxCell>
        <mxCell id="nDI0iuyNL2uJYVKfgoxX-12" value="" style="endArrow=classic;html=1;rounded=0;entryX=0;entryY=0.5;entryDx=0;entryDy=0;" parent="1" target="nDI0iuyNL2uJYVKfgoxX-1" edge="1">
          <mxGeometry width="50" height="50" relative="1" as="geometry">
            <mxPoint x="230" y="285" as="sourcePoint" />
            <mxPoint x="260" y="280" as="targetPoint" />
          </mxGeometry>
        </mxCell>
        <mxCell id="nDI0iuyNL2uJYVKfgoxX-13" value="data input" style="edgeLabel;html=1;align=center;verticalAlign=middle;resizable=0;points=[];" parent="nDI0iuyNL2uJYVKfgoxX-12" vertex="1" connectable="0">
          <mxGeometry x="0.3876" y="3" relative="1" as="geometry">
            <mxPoint x="-12" y="-12" as="offset" />
          </mxGeometry>
        </mxCell>
        <mxCell id="nDI0iuyNL2uJYVKfgoxX-14" value="" style="endArrow=classic;html=1;rounded=0;entryX=-0.029;entryY=0.796;entryDx=0;entryDy=0;entryPerimeter=0;" parent="1" target="nDI0iuyNL2uJYVKfgoxX-3" edge="1">
          <mxGeometry width="50" height="50" relative="1" as="geometry">
            <mxPoint x="230" y="360" as="sourcePoint" />
            <mxPoint x="305" y="360" as="targetPoint" />
          </mxGeometry>
        </mxCell>
        <mxCell id="nDI0iuyNL2uJYVKfgoxX-15" value="write input" style="edgeLabel;html=1;align=center;verticalAlign=middle;resizable=0;points=[];" parent="nDI0iuyNL2uJYVKfgoxX-14" vertex="1" connectable="0">
          <mxGeometry x="0.3876" y="3" relative="1" as="geometry">
            <mxPoint x="-132" y="-7" as="offset" />
          </mxGeometry>
        </mxCell>
        <mxCell id="nDI0iuyNL2uJYVKfgoxX-16" value="" style="endArrow=classic;html=1;rounded=0;exitX=1;exitY=0.5;exitDx=0;exitDy=0;" parent="1" source="nDI0iuyNL2uJYVKfgoxX-3" edge="1">
          <mxGeometry width="50" height="50" relative="1" as="geometry">
            <mxPoint x="620" y="340" as="sourcePoint" />
            <mxPoint x="680" y="330" as="targetPoint" />
          </mxGeometry>
        </mxCell>
        <mxCell id="nDI0iuyNL2uJYVKfgoxX-17" value="data output" style="edgeLabel;html=1;align=center;verticalAlign=middle;resizable=0;points=[];" parent="nDI0iuyNL2uJYVKfgoxX-16" vertex="1" connectable="0">
          <mxGeometry x="-0.0034" y="3" relative="1" as="geometry">
            <mxPoint x="5" y="-7" as="offset" />
          </mxGeometry>
        </mxCell>
      </root>
    </mxGraphModel>
  </diagram>
  <diagram name="Sequential" id="UhoLKQElrvpqSnhPbVGH">
    <mxGraphModel dx="1173" dy="819" grid="1" gridSize="10" guides="1" tooltips="1" connect="1" arrows="1" fold="1" page="1" pageScale="1" pageWidth="850" pageHeight="1100" math="0" shadow="0">
      <root>
        <mxCell id="BBTWRQpOyERzSfULh7v--0" />
        <mxCell id="BBTWRQpOyERzSfULh7v--1" parent="BBTWRQpOyERzSfULh7v--0" />
        <mxCell id="TOgIVUY1Xk-wUzdJJ03C-16" value="external memory" style="rounded=0;whiteSpace=wrap;html=1;" parent="BBTWRQpOyERzSfULh7v--1" vertex="1">
          <mxGeometry x="425" y="530" width="120" height="60" as="geometry" />
        </mxCell>
        <mxCell id="BBTWRQpOyERzSfULh7v--2" value="" style="rounded=0;whiteSpace=wrap;html=1;fillColor=none;dashed=1;" parent="BBTWRQpOyERzSfULh7v--1" vertex="1">
          <mxGeometry x="115" y="300" width="295" height="210" as="geometry" />
        </mxCell>
        <mxCell id="BBTWRQpOyERzSfULh7v--5" value="Attention" style="whiteSpace=wrap;html=1;aspect=fixed;" parent="BBTWRQpOyERzSfULh7v--1" vertex="1">
          <mxGeometry x="130" y="350" width="110" height="110" as="geometry" />
        </mxCell>
        <mxCell id="BBTWRQpOyERzSfULh7v--6" style="edgeStyle=orthogonalEdgeStyle;rounded=0;orthogonalLoop=1;jettySize=auto;html=1;entryX=0.25;entryY=0;entryDx=0;entryDy=0;" parent="BBTWRQpOyERzSfULh7v--1" source="BBTWRQpOyERzSfULh7v--8" target="TOgIVUY1Xk-wUzdJJ03C-16" edge="1">
          <mxGeometry relative="1" as="geometry">
            <mxPoint x="490" y="345" as="targetPoint" />
          </mxGeometry>
        </mxCell>
        <mxCell id="BBTWRQpOyERzSfULh7v--7" value="expert chosen" style="edgeLabel;html=1;align=center;verticalAlign=middle;resizable=0;points=[];" parent="BBTWRQpOyERzSfULh7v--6" vertex="1" connectable="0">
          <mxGeometry x="0.1719" y="3" relative="1" as="geometry">
            <mxPoint x="-8" y="-96" as="offset" />
          </mxGeometry>
        </mxCell>
        <mxCell id="BBTWRQpOyERzSfULh7v--8" value="Pre-Gated" style="rounded=0;whiteSpace=wrap;html=1;" parent="BBTWRQpOyERzSfULh7v--1" vertex="1">
          <mxGeometry x="290" y="320" width="100" height="50" as="geometry" />
        </mxCell>
        <mxCell id="BBTWRQpOyERzSfULh7v--3" style="edgeStyle=orthogonalEdgeStyle;rounded=0;orthogonalLoop=1;jettySize=auto;html=1;entryX=0;entryY=0.5;entryDx=0;entryDy=0;" parent="BBTWRQpOyERzSfULh7v--1" source="BBTWRQpOyERzSfULh7v--5" target="BBTWRQpOyERzSfULh7v--8" edge="1">
          <mxGeometry relative="1" as="geometry" />
        </mxCell>
        <mxCell id="BBTWRQpOyERzSfULh7v--9" value="FFN" style="whiteSpace=wrap;html=1;aspect=fixed;" parent="BBTWRQpOyERzSfULh7v--1" vertex="1">
          <mxGeometry x="290" y="400" width="100" height="100" as="geometry" />
        </mxCell>
        <mxCell id="BBTWRQpOyERzSfULh7v--4" style="edgeStyle=orthogonalEdgeStyle;rounded=0;orthogonalLoop=1;jettySize=auto;html=1;entryX=0;entryY=0.5;entryDx=0;entryDy=0;" parent="BBTWRQpOyERzSfULh7v--1" source="BBTWRQpOyERzSfULh7v--5" target="BBTWRQpOyERzSfULh7v--9" edge="1">
          <mxGeometry relative="1" as="geometry" />
        </mxCell>
        <mxCell id="BBTWRQpOyERzSfULh7v--10" value="" style="endArrow=classic;html=1;rounded=0;entryX=-0.007;entryY=0.726;entryDx=0;entryDy=0;entryPerimeter=0;" parent="BBTWRQpOyERzSfULh7v--1" target="BBTWRQpOyERzSfULh7v--5" edge="1">
          <mxGeometry width="50" height="50" relative="1" as="geometry">
            <mxPoint x="40" y="430" as="sourcePoint" />
            <mxPoint x="70" y="400" as="targetPoint" />
          </mxGeometry>
        </mxCell>
        <mxCell id="BBTWRQpOyERzSfULh7v--11" value="data input" style="edgeLabel;html=1;align=center;verticalAlign=middle;resizable=0;points=[];" parent="BBTWRQpOyERzSfULh7v--10" vertex="1" connectable="0">
          <mxGeometry x="0.3876" y="3" relative="1" as="geometry">
            <mxPoint x="-22" y="-7" as="offset" />
          </mxGeometry>
        </mxCell>
        <mxCell id="BBTWRQpOyERzSfULh7v--12" value="" style="endArrow=classic;html=1;rounded=0;entryX=-0.029;entryY=0.796;entryDx=0;entryDy=0;entryPerimeter=0;" parent="BBTWRQpOyERzSfULh7v--1" target="BBTWRQpOyERzSfULh7v--9" edge="1">
          <mxGeometry width="50" height="50" relative="1" as="geometry">
            <mxPoint x="40" y="480" as="sourcePoint" />
            <mxPoint x="115" y="480" as="targetPoint" />
          </mxGeometry>
        </mxCell>
        <mxCell id="BBTWRQpOyERzSfULh7v--13" value="write input" style="edgeLabel;html=1;align=center;verticalAlign=middle;resizable=0;points=[];" parent="BBTWRQpOyERzSfULh7v--12" vertex="1" connectable="0">
          <mxGeometry x="0.3876" y="3" relative="1" as="geometry">
            <mxPoint x="-132" y="-7" as="offset" />
          </mxGeometry>
        </mxCell>
        <mxCell id="BBTWRQpOyERzSfULh7v--14" value="" style="endArrow=none;html=1;rounded=0;endFill=0;" parent="BBTWRQpOyERzSfULh7v--1" edge="1">
          <mxGeometry width="50" height="50" relative="1" as="geometry">
            <mxPoint x="390" y="430" as="sourcePoint" />
            <mxPoint x="490" y="430" as="targetPoint" />
          </mxGeometry>
        </mxCell>
        <mxCell id="BBTWRQpOyERzSfULh7v--15" value="data output" style="edgeLabel;html=1;align=center;verticalAlign=middle;resizable=0;points=[];" parent="BBTWRQpOyERzSfULh7v--14" vertex="1" connectable="0">
          <mxGeometry x="-0.0034" y="3" relative="1" as="geometry">
            <mxPoint x="5" y="-7" as="offset" />
          </mxGeometry>
        </mxCell>
        <mxCell id="TOgIVUY1Xk-wUzdJJ03C-18" value="" style="rounded=0;whiteSpace=wrap;html=1;fillColor=none;dashed=1;" parent="BBTWRQpOyERzSfULh7v--1" vertex="1">
          <mxGeometry x="565" y="300" width="295" height="210" as="geometry" />
        </mxCell>
        <mxCell id="TOgIVUY1Xk-wUzdJJ03C-19" value="Attention" style="whiteSpace=wrap;html=1;aspect=fixed;" parent="BBTWRQpOyERzSfULh7v--1" vertex="1">
          <mxGeometry x="580" y="350" width="110" height="110" as="geometry" />
        </mxCell>
        <mxCell id="TOgIVUY1Xk-wUzdJJ03C-20" style="edgeStyle=orthogonalEdgeStyle;rounded=0;orthogonalLoop=1;jettySize=auto;html=1;" parent="BBTWRQpOyERzSfULh7v--1" source="TOgIVUY1Xk-wUzdJJ03C-22" edge="1">
          <mxGeometry relative="1" as="geometry">
            <mxPoint x="940" y="345" as="targetPoint" />
          </mxGeometry>
        </mxCell>
        <mxCell id="TOgIVUY1Xk-wUzdJJ03C-21" value="expert chosen" style="edgeLabel;html=1;align=center;verticalAlign=middle;resizable=0;points=[];" parent="TOgIVUY1Xk-wUzdJJ03C-20" vertex="1" connectable="0">
          <mxGeometry x="0.1719" y="3" relative="1" as="geometry">
            <mxPoint x="2" y="-12" as="offset" />
          </mxGeometry>
        </mxCell>
        <mxCell id="TOgIVUY1Xk-wUzdJJ03C-22" value="Pre-Gated" style="rounded=0;whiteSpace=wrap;html=1;" parent="BBTWRQpOyERzSfULh7v--1" vertex="1">
          <mxGeometry x="740" y="320" width="100" height="50" as="geometry" />
        </mxCell>
        <mxCell id="TOgIVUY1Xk-wUzdJJ03C-23" style="edgeStyle=orthogonalEdgeStyle;rounded=0;orthogonalLoop=1;jettySize=auto;html=1;entryX=0;entryY=0.5;entryDx=0;entryDy=0;" parent="BBTWRQpOyERzSfULh7v--1" source="TOgIVUY1Xk-wUzdJJ03C-19" target="TOgIVUY1Xk-wUzdJJ03C-22" edge="1">
          <mxGeometry relative="1" as="geometry" />
        </mxCell>
        <mxCell id="TOgIVUY1Xk-wUzdJJ03C-24" value="FFN" style="whiteSpace=wrap;html=1;aspect=fixed;" parent="BBTWRQpOyERzSfULh7v--1" vertex="1">
          <mxGeometry x="740" y="400" width="100" height="100" as="geometry" />
        </mxCell>
        <mxCell id="TOgIVUY1Xk-wUzdJJ03C-25" style="edgeStyle=orthogonalEdgeStyle;rounded=0;orthogonalLoop=1;jettySize=auto;html=1;entryX=0;entryY=0.5;entryDx=0;entryDy=0;" parent="BBTWRQpOyERzSfULh7v--1" source="TOgIVUY1Xk-wUzdJJ03C-19" target="TOgIVUY1Xk-wUzdJJ03C-24" edge="1">
          <mxGeometry relative="1" as="geometry" />
        </mxCell>
        <mxCell id="TOgIVUY1Xk-wUzdJJ03C-26" value="" style="endArrow=classic;html=1;rounded=0;entryX=-0.007;entryY=0.726;entryDx=0;entryDy=0;entryPerimeter=0;" parent="BBTWRQpOyERzSfULh7v--1" target="TOgIVUY1Xk-wUzdJJ03C-19" edge="1">
          <mxGeometry width="50" height="50" relative="1" as="geometry">
            <mxPoint x="490" y="430" as="sourcePoint" />
            <mxPoint x="520" y="400" as="targetPoint" />
          </mxGeometry>
        </mxCell>
        <mxCell id="TOgIVUY1Xk-wUzdJJ03C-27" value="data input" style="edgeLabel;html=1;align=center;verticalAlign=middle;resizable=0;points=[];" parent="TOgIVUY1Xk-wUzdJJ03C-26" vertex="1" connectable="0">
          <mxGeometry x="0.3876" y="3" relative="1" as="geometry">
            <mxPoint x="-22" y="-7" as="offset" />
          </mxGeometry>
        </mxCell>
        <mxCell id="TOgIVUY1Xk-wUzdJJ03C-28" value="" style="endArrow=classic;html=1;rounded=0;exitX=0.71;exitY=-0.045;exitDx=0;exitDy=0;exitPerimeter=0;" parent="BBTWRQpOyERzSfULh7v--1" edge="1">
          <mxGeometry width="50" height="50" relative="1" as="geometry">
            <mxPoint x="490.20000000000005" y="530" as="sourcePoint" />
            <mxPoint x="740" y="480" as="targetPoint" />
            <Array as="points">
              <mxPoint x="490" y="480" />
            </Array>
          </mxGeometry>
        </mxCell>
        <mxCell id="TOgIVUY1Xk-wUzdJJ03C-29" value="write input" style="edgeLabel;html=1;align=center;verticalAlign=middle;resizable=0;points=[];" parent="TOgIVUY1Xk-wUzdJJ03C-28" vertex="1" connectable="0">
          <mxGeometry x="0.3876" y="3" relative="1" as="geometry">
            <mxPoint x="-118" y="-7" as="offset" />
          </mxGeometry>
        </mxCell>
        <mxCell id="TOgIVUY1Xk-wUzdJJ03C-30" value="" style="endArrow=classic;html=1;rounded=0;" parent="BBTWRQpOyERzSfULh7v--1" edge="1">
          <mxGeometry width="50" height="50" relative="1" as="geometry">
            <mxPoint x="840" y="430" as="sourcePoint" />
            <mxPoint x="940" y="430" as="targetPoint" />
          </mxGeometry>
        </mxCell>
        <mxCell id="TOgIVUY1Xk-wUzdJJ03C-31" value="data output" style="edgeLabel;html=1;align=center;verticalAlign=middle;resizable=0;points=[];" parent="TOgIVUY1Xk-wUzdJJ03C-30" vertex="1" connectable="0">
          <mxGeometry x="-0.0034" y="3" relative="1" as="geometry">
            <mxPoint x="5" y="-7" as="offset" />
          </mxGeometry>
        </mxCell>
      </root>
    </mxGraphModel>
  </diagram>
  <diagram name="Sequential(without Extenral)" id="NzV7qL2ilu6E7uhtZo7c">
    <mxGraphModel dx="1380" dy="964" grid="1" gridSize="10" guides="1" tooltips="1" connect="1" arrows="1" fold="1" page="1" pageScale="1" pageWidth="850" pageHeight="1100" math="0" shadow="0">
      <root>
        <mxCell id="Zsc73ccO-wSfrb9jDuES-0" />
        <mxCell id="Zsc73ccO-wSfrb9jDuES-1" parent="Zsc73ccO-wSfrb9jDuES-0" />
        <mxCell id="Zsc73ccO-wSfrb9jDuES-3" value="" style="rounded=0;whiteSpace=wrap;html=1;fillColor=none;dashed=1;" vertex="1" parent="Zsc73ccO-wSfrb9jDuES-1">
          <mxGeometry x="115" y="300" width="295" height="210" as="geometry" />
        </mxCell>
        <mxCell id="Zsc73ccO-wSfrb9jDuES-4" value="Attention" style="whiteSpace=wrap;html=1;aspect=fixed;" vertex="1" parent="Zsc73ccO-wSfrb9jDuES-1">
          <mxGeometry x="130" y="350" width="110" height="110" as="geometry" />
        </mxCell>
        <mxCell id="Zsc73ccO-wSfrb9jDuES-5" style="edgeStyle=orthogonalEdgeStyle;rounded=0;orthogonalLoop=1;jettySize=auto;html=1;entryX=0;entryY=0.75;entryDx=0;entryDy=0;" edge="1" parent="Zsc73ccO-wSfrb9jDuES-1" source="Zsc73ccO-wSfrb9jDuES-7" target="Zsc73ccO-wSfrb9jDuES-23">
          <mxGeometry relative="1" as="geometry">
            <mxPoint x="455" y="530" as="targetPoint" />
            <Array as="points">
              <mxPoint x="480" y="345" />
              <mxPoint x="480" y="475" />
            </Array>
          </mxGeometry>
        </mxCell>
        <mxCell id="Zsc73ccO-wSfrb9jDuES-6" value="expert chosen" style="edgeLabel;html=1;align=center;verticalAlign=middle;resizable=0;points=[];" vertex="1" connectable="0" parent="Zsc73ccO-wSfrb9jDuES-5">
          <mxGeometry x="0.1719" y="3" relative="1" as="geometry">
            <mxPoint x="-91" y="-142" as="offset" />
          </mxGeometry>
        </mxCell>
        <mxCell id="Zsc73ccO-wSfrb9jDuES-7" value="Pre-Gated" style="rounded=0;whiteSpace=wrap;html=1;" vertex="1" parent="Zsc73ccO-wSfrb9jDuES-1">
          <mxGeometry x="290" y="320" width="100" height="50" as="geometry" />
        </mxCell>
        <mxCell id="Zsc73ccO-wSfrb9jDuES-8" style="edgeStyle=orthogonalEdgeStyle;rounded=0;orthogonalLoop=1;jettySize=auto;html=1;entryX=0;entryY=0.5;entryDx=0;entryDy=0;" edge="1" parent="Zsc73ccO-wSfrb9jDuES-1" source="Zsc73ccO-wSfrb9jDuES-4" target="Zsc73ccO-wSfrb9jDuES-7">
          <mxGeometry relative="1" as="geometry" />
        </mxCell>
        <mxCell id="Zsc73ccO-wSfrb9jDuES-9" value="FFN" style="whiteSpace=wrap;html=1;aspect=fixed;" vertex="1" parent="Zsc73ccO-wSfrb9jDuES-1">
          <mxGeometry x="290" y="400" width="100" height="100" as="geometry" />
        </mxCell>
        <mxCell id="Zsc73ccO-wSfrb9jDuES-10" style="edgeStyle=orthogonalEdgeStyle;rounded=0;orthogonalLoop=1;jettySize=auto;html=1;entryX=0;entryY=0.5;entryDx=0;entryDy=0;" edge="1" parent="Zsc73ccO-wSfrb9jDuES-1" source="Zsc73ccO-wSfrb9jDuES-4" target="Zsc73ccO-wSfrb9jDuES-9">
          <mxGeometry relative="1" as="geometry" />
        </mxCell>
        <mxCell id="Zsc73ccO-wSfrb9jDuES-11" value="" style="endArrow=classic;html=1;rounded=0;entryX=-0.007;entryY=0.726;entryDx=0;entryDy=0;entryPerimeter=0;" edge="1" parent="Zsc73ccO-wSfrb9jDuES-1" target="Zsc73ccO-wSfrb9jDuES-4">
          <mxGeometry width="50" height="50" relative="1" as="geometry">
            <mxPoint x="40" y="430" as="sourcePoint" />
            <mxPoint x="70" y="400" as="targetPoint" />
          </mxGeometry>
        </mxCell>
        <mxCell id="Zsc73ccO-wSfrb9jDuES-12" value="data input" style="edgeLabel;html=1;align=center;verticalAlign=middle;resizable=0;points=[];" vertex="1" connectable="0" parent="Zsc73ccO-wSfrb9jDuES-11">
          <mxGeometry x="0.3876" y="3" relative="1" as="geometry">
            <mxPoint x="-22" y="-7" as="offset" />
          </mxGeometry>
        </mxCell>
        <mxCell id="Zsc73ccO-wSfrb9jDuES-13" value="" style="endArrow=classic;html=1;rounded=0;entryX=-0.029;entryY=0.796;entryDx=0;entryDy=0;entryPerimeter=0;" edge="1" parent="Zsc73ccO-wSfrb9jDuES-1" target="Zsc73ccO-wSfrb9jDuES-9">
          <mxGeometry width="50" height="50" relative="1" as="geometry">
            <mxPoint x="40" y="480" as="sourcePoint" />
            <mxPoint x="115" y="480" as="targetPoint" />
          </mxGeometry>
        </mxCell>
        <mxCell id="Zsc73ccO-wSfrb9jDuES-14" value="expert chosen" style="edgeLabel;html=1;align=center;verticalAlign=middle;resizable=0;points=[];" vertex="1" connectable="0" parent="Zsc73ccO-wSfrb9jDuES-13">
          <mxGeometry x="0.3876" y="3" relative="1" as="geometry">
            <mxPoint x="-132" y="-7" as="offset" />
          </mxGeometry>
        </mxCell>
        <mxCell id="Zsc73ccO-wSfrb9jDuES-15" value="" style="endArrow=none;html=1;rounded=0;endFill=0;" edge="1" parent="Zsc73ccO-wSfrb9jDuES-1">
          <mxGeometry width="50" height="50" relative="1" as="geometry">
            <mxPoint x="390" y="430" as="sourcePoint" />
            <mxPoint x="490" y="430" as="targetPoint" />
          </mxGeometry>
        </mxCell>
        <mxCell id="Zsc73ccO-wSfrb9jDuES-16" value="data output" style="edgeLabel;html=1;align=center;verticalAlign=middle;resizable=0;points=[];" vertex="1" connectable="0" parent="Zsc73ccO-wSfrb9jDuES-15">
          <mxGeometry x="-0.0034" y="3" relative="1" as="geometry">
            <mxPoint x="5" y="-7" as="offset" />
          </mxGeometry>
        </mxCell>
        <mxCell id="Zsc73ccO-wSfrb9jDuES-17" value="" style="rounded=0;whiteSpace=wrap;html=1;fillColor=none;dashed=1;" vertex="1" parent="Zsc73ccO-wSfrb9jDuES-1">
          <mxGeometry x="565" y="300" width="295" height="210" as="geometry" />
        </mxCell>
        <mxCell id="Zsc73ccO-wSfrb9jDuES-18" value="Attention" style="whiteSpace=wrap;html=1;aspect=fixed;" vertex="1" parent="Zsc73ccO-wSfrb9jDuES-1">
          <mxGeometry x="580" y="350" width="110" height="110" as="geometry" />
        </mxCell>
        <mxCell id="Zsc73ccO-wSfrb9jDuES-19" style="edgeStyle=orthogonalEdgeStyle;rounded=0;orthogonalLoop=1;jettySize=auto;html=1;" edge="1" parent="Zsc73ccO-wSfrb9jDuES-1" source="Zsc73ccO-wSfrb9jDuES-21">
          <mxGeometry relative="1" as="geometry">
            <mxPoint x="940" y="345" as="targetPoint" />
          </mxGeometry>
        </mxCell>
        <mxCell id="Zsc73ccO-wSfrb9jDuES-20" value="expert chosen" style="edgeLabel;html=1;align=center;verticalAlign=middle;resizable=0;points=[];" vertex="1" connectable="0" parent="Zsc73ccO-wSfrb9jDuES-19">
          <mxGeometry x="0.1719" y="3" relative="1" as="geometry">
            <mxPoint x="2" y="-12" as="offset" />
          </mxGeometry>
        </mxCell>
        <mxCell id="Zsc73ccO-wSfrb9jDuES-21" value="Pre-Gated" style="rounded=0;whiteSpace=wrap;html=1;" vertex="1" parent="Zsc73ccO-wSfrb9jDuES-1">
          <mxGeometry x="740" y="320" width="100" height="50" as="geometry" />
        </mxCell>
        <mxCell id="Zsc73ccO-wSfrb9jDuES-22" style="edgeStyle=orthogonalEdgeStyle;rounded=0;orthogonalLoop=1;jettySize=auto;html=1;entryX=0;entryY=0.5;entryDx=0;entryDy=0;" edge="1" parent="Zsc73ccO-wSfrb9jDuES-1" source="Zsc73ccO-wSfrb9jDuES-18" target="Zsc73ccO-wSfrb9jDuES-21">
          <mxGeometry relative="1" as="geometry" />
        </mxCell>
        <mxCell id="Zsc73ccO-wSfrb9jDuES-23" value="FFN" style="whiteSpace=wrap;html=1;aspect=fixed;" vertex="1" parent="Zsc73ccO-wSfrb9jDuES-1">
          <mxGeometry x="740" y="400" width="100" height="100" as="geometry" />
        </mxCell>
        <mxCell id="Zsc73ccO-wSfrb9jDuES-24" style="edgeStyle=orthogonalEdgeStyle;rounded=0;orthogonalLoop=1;jettySize=auto;html=1;entryX=0;entryY=0.5;entryDx=0;entryDy=0;" edge="1" parent="Zsc73ccO-wSfrb9jDuES-1" source="Zsc73ccO-wSfrb9jDuES-18" target="Zsc73ccO-wSfrb9jDuES-23">
          <mxGeometry relative="1" as="geometry" />
        </mxCell>
        <mxCell id="Zsc73ccO-wSfrb9jDuES-25" value="" style="endArrow=classic;html=1;rounded=0;entryX=-0.007;entryY=0.726;entryDx=0;entryDy=0;entryPerimeter=0;" edge="1" parent="Zsc73ccO-wSfrb9jDuES-1" target="Zsc73ccO-wSfrb9jDuES-18">
          <mxGeometry width="50" height="50" relative="1" as="geometry">
            <mxPoint x="490" y="430" as="sourcePoint" />
            <mxPoint x="520" y="400" as="targetPoint" />
          </mxGeometry>
        </mxCell>
        <mxCell id="Zsc73ccO-wSfrb9jDuES-26" value="data input" style="edgeLabel;html=1;align=center;verticalAlign=middle;resizable=0;points=[];" vertex="1" connectable="0" parent="Zsc73ccO-wSfrb9jDuES-25">
          <mxGeometry x="0.3876" y="3" relative="1" as="geometry">
            <mxPoint x="-22" y="-7" as="offset" />
          </mxGeometry>
        </mxCell>
        <mxCell id="Zsc73ccO-wSfrb9jDuES-29" value="" style="endArrow=classic;html=1;rounded=0;" edge="1" parent="Zsc73ccO-wSfrb9jDuES-1">
          <mxGeometry width="50" height="50" relative="1" as="geometry">
            <mxPoint x="840" y="430" as="sourcePoint" />
            <mxPoint x="940" y="430" as="targetPoint" />
          </mxGeometry>
        </mxCell>
        <mxCell id="Zsc73ccO-wSfrb9jDuES-30" value="data output" style="edgeLabel;html=1;align=center;verticalAlign=middle;resizable=0;points=[];" vertex="1" connectable="0" parent="Zsc73ccO-wSfrb9jDuES-29">
          <mxGeometry x="-0.0034" y="3" relative="1" as="geometry">
            <mxPoint x="5" y="-7" as="offset" />
          </mxGeometry>
        </mxCell>
      </root>
    </mxGraphModel>
  </diagram>
  <diagram name="Ping-pong" id="b0pSXPS2IpiFk4--sD3O">
    <mxGraphModel dx="978" dy="683" grid="1" gridSize="10" guides="1" tooltips="1" connect="1" arrows="1" fold="1" page="1" pageScale="1" pageWidth="850" pageHeight="1100" math="0" shadow="0">
      <root>
        <mxCell id="D0Xw5VAduO1VgtQK8KO7-0" />
        <mxCell id="D0Xw5VAduO1VgtQK8KO7-1" parent="D0Xw5VAduO1VgtQK8KO7-0" />
        <mxCell id="ZV_9s8rY1GRgmeanMDsg-26" value="" style="whiteSpace=wrap;html=1;aspect=fixed;fillColor=none;dashed=1;" vertex="1" parent="D0Xw5VAduO1VgtQK8KO7-1">
          <mxGeometry x="170" y="170" width="650" height="650" as="geometry" />
        </mxCell>
        <mxCell id="ZV_9s8rY1GRgmeanMDsg-5" value="" style="rounded=0;whiteSpace=wrap;html=1;fillColor=none;dashed=1;" vertex="1" parent="D0Xw5VAduO1VgtQK8KO7-1">
          <mxGeometry x="520" y="410" width="190" height="210" as="geometry" />
        </mxCell>
        <mxCell id="A601uoqatb8ZkdlMq0YD-15" value="" style="rounded=0;whiteSpace=wrap;html=1;fillColor=none;dashed=1;" vertex="1" parent="D0Xw5VAduO1VgtQK8KO7-1">
          <mxGeometry x="290" y="410" width="190" height="210" as="geometry" />
        </mxCell>
        <mxCell id="A601uoqatb8ZkdlMq0YD-4" value="Attention" style="rounded=0;whiteSpace=wrap;html=1;" vertex="1" parent="D0Xw5VAduO1VgtQK8KO7-1">
          <mxGeometry x="300" y="430" width="170" height="60" as="geometry" />
        </mxCell>
        <mxCell id="A601uoqatb8ZkdlMq0YD-7" style="edgeStyle=orthogonalEdgeStyle;rounded=0;orthogonalLoop=1;jettySize=auto;html=1;exitX=0.233;exitY=1.028;exitDx=0;exitDy=0;exitPerimeter=0;" edge="1" parent="D0Xw5VAduO1VgtQK8KO7-1" source="A601uoqatb8ZkdlMq0YD-4" target="A601uoqatb8ZkdlMq0YD-5">
          <mxGeometry relative="1" as="geometry" />
        </mxCell>
        <mxCell id="A601uoqatb8ZkdlMq0YD-9" style="edgeStyle=orthogonalEdgeStyle;rounded=0;orthogonalLoop=1;jettySize=auto;html=1;" edge="1" parent="D0Xw5VAduO1VgtQK8KO7-1" source="A601uoqatb8ZkdlMq0YD-5">
          <mxGeometry relative="1" as="geometry">
            <mxPoint x="340" y="640" as="targetPoint" />
          </mxGeometry>
        </mxCell>
        <mxCell id="A601uoqatb8ZkdlMq0YD-11" value="chosen" style="edgeLabel;html=1;align=center;verticalAlign=middle;resizable=0;points=[];" vertex="1" connectable="0" parent="A601uoqatb8ZkdlMq0YD-9">
          <mxGeometry x="-0.4146" relative="1" as="geometry">
            <mxPoint as="offset" />
          </mxGeometry>
        </mxCell>
        <mxCell id="A601uoqatb8ZkdlMq0YD-5" value="Pre-Gated" style="rounded=0;whiteSpace=wrap;html=1;" vertex="1" parent="D0Xw5VAduO1VgtQK8KO7-1">
          <mxGeometry x="300" y="520" width="80" height="60" as="geometry" />
        </mxCell>
        <mxCell id="A601uoqatb8ZkdlMq0YD-8" style="edgeStyle=orthogonalEdgeStyle;rounded=0;orthogonalLoop=1;jettySize=auto;html=1;exitX=0.766;exitY=1.015;exitDx=0;exitDy=0;exitPerimeter=0;" edge="1" parent="D0Xw5VAduO1VgtQK8KO7-1" source="A601uoqatb8ZkdlMq0YD-4" target="A601uoqatb8ZkdlMq0YD-6">
          <mxGeometry relative="1" as="geometry" />
        </mxCell>
        <mxCell id="A601uoqatb8ZkdlMq0YD-10" style="edgeStyle=orthogonalEdgeStyle;rounded=0;orthogonalLoop=1;jettySize=auto;html=1;" edge="1" parent="D0Xw5VAduO1VgtQK8KO7-1" source="A601uoqatb8ZkdlMq0YD-6">
          <mxGeometry relative="1" as="geometry">
            <mxPoint x="430" y="640" as="targetPoint" />
          </mxGeometry>
        </mxCell>
        <mxCell id="A601uoqatb8ZkdlMq0YD-12" value="data output" style="edgeLabel;html=1;align=center;verticalAlign=middle;resizable=0;points=[];" vertex="1" connectable="0" parent="A601uoqatb8ZkdlMq0YD-10">
          <mxGeometry x="-0.3768" relative="1" as="geometry">
            <mxPoint as="offset" />
          </mxGeometry>
        </mxCell>
        <mxCell id="A601uoqatb8ZkdlMq0YD-6" value="FFN" style="rounded=0;whiteSpace=wrap;html=1;" vertex="1" parent="D0Xw5VAduO1VgtQK8KO7-1">
          <mxGeometry x="390" y="520" width="80" height="60" as="geometry" />
        </mxCell>
        <mxCell id="A601uoqatb8ZkdlMq0YD-13" value="" style="endArrow=classic;html=1;rounded=0;" edge="1" parent="D0Xw5VAduO1VgtQK8KO7-1">
          <mxGeometry width="50" height="50" relative="1" as="geometry">
            <mxPoint x="380" y="370" as="sourcePoint" />
            <mxPoint x="380" y="430" as="targetPoint" />
          </mxGeometry>
        </mxCell>
        <mxCell id="A601uoqatb8ZkdlMq0YD-14" value="data input" style="edgeLabel;html=1;align=center;verticalAlign=middle;resizable=0;points=[];" vertex="1" connectable="0" parent="A601uoqatb8ZkdlMq0YD-13">
          <mxGeometry x="-0.1651" y="1" relative="1" as="geometry">
            <mxPoint x="-1" as="offset" />
          </mxGeometry>
        </mxCell>
        <mxCell id="A601uoqatb8ZkdlMq0YD-29" value="" style="endArrow=classic;html=1;rounded=0;entryX=0;entryY=0.5;entryDx=0;entryDy=0;" edge="1" parent="D0Xw5VAduO1VgtQK8KO7-1" target="A601uoqatb8ZkdlMq0YD-5">
          <mxGeometry width="50" height="50" relative="1" as="geometry">
            <mxPoint x="240" y="550" as="sourcePoint" />
            <mxPoint x="260" y="540" as="targetPoint" />
          </mxGeometry>
        </mxCell>
        <mxCell id="A601uoqatb8ZkdlMq0YD-30" value="expert" style="edgeLabel;html=1;align=center;verticalAlign=middle;resizable=0;points=[];" vertex="1" connectable="0" parent="A601uoqatb8ZkdlMq0YD-29">
          <mxGeometry x="0.2291" relative="1" as="geometry">
            <mxPoint x="-7" y="-10" as="offset" />
          </mxGeometry>
        </mxCell>
        <mxCell id="ZV_9s8rY1GRgmeanMDsg-13" style="edgeStyle=orthogonalEdgeStyle;rounded=0;orthogonalLoop=1;jettySize=auto;html=1;" edge="1" parent="D0Xw5VAduO1VgtQK8KO7-1" target="ZV_9s8rY1GRgmeanMDsg-0">
          <mxGeometry relative="1" as="geometry">
            <mxPoint x="615" y="630" as="sourcePoint" />
          </mxGeometry>
        </mxCell>
        <mxCell id="ZV_9s8rY1GRgmeanMDsg-14" value="data input" style="edgeLabel;html=1;align=center;verticalAlign=middle;resizable=0;points=[];" vertex="1" connectable="0" parent="ZV_9s8rY1GRgmeanMDsg-13">
          <mxGeometry x="-0.2894" relative="1" as="geometry">
            <mxPoint y="-12" as="offset" />
          </mxGeometry>
        </mxCell>
        <mxCell id="ZV_9s8rY1GRgmeanMDsg-0" value="Attention" style="rounded=0;whiteSpace=wrap;html=1;" vertex="1" parent="D0Xw5VAduO1VgtQK8KO7-1">
          <mxGeometry x="530" y="520" width="170" height="60" as="geometry" />
        </mxCell>
        <mxCell id="ZV_9s8rY1GRgmeanMDsg-3" style="edgeStyle=orthogonalEdgeStyle;rounded=0;orthogonalLoop=1;jettySize=auto;html=1;exitX=0.233;exitY=0;exitDx=0;exitDy=0;exitPerimeter=0;" edge="1" parent="D0Xw5VAduO1VgtQK8KO7-1" source="ZV_9s8rY1GRgmeanMDsg-0" target="ZV_9s8rY1GRgmeanMDsg-1">
          <mxGeometry relative="1" as="geometry" />
        </mxCell>
        <mxCell id="ZV_9s8rY1GRgmeanMDsg-6" style="edgeStyle=orthogonalEdgeStyle;rounded=0;orthogonalLoop=1;jettySize=auto;html=1;" edge="1" parent="D0Xw5VAduO1VgtQK8KO7-1" source="ZV_9s8rY1GRgmeanMDsg-1">
          <mxGeometry relative="1" as="geometry">
            <mxPoint x="570" y="370" as="targetPoint" />
          </mxGeometry>
        </mxCell>
        <mxCell id="ZV_9s8rY1GRgmeanMDsg-8" value="data output" style="edgeLabel;html=1;align=center;verticalAlign=middle;resizable=0;points=[];" vertex="1" connectable="0" parent="ZV_9s8rY1GRgmeanMDsg-6">
          <mxGeometry x="0.333" y="-1" relative="1" as="geometry">
            <mxPoint x="-1" y="5" as="offset" />
          </mxGeometry>
        </mxCell>
        <mxCell id="ZV_9s8rY1GRgmeanMDsg-1" value="FFN" style="rounded=0;whiteSpace=wrap;html=1;" vertex="1" parent="D0Xw5VAduO1VgtQK8KO7-1">
          <mxGeometry x="530" y="430" width="80" height="60" as="geometry" />
        </mxCell>
        <mxCell id="ZV_9s8rY1GRgmeanMDsg-4" style="edgeStyle=orthogonalEdgeStyle;rounded=0;orthogonalLoop=1;jettySize=auto;html=1;exitX=0.77;exitY=-0.053;exitDx=0;exitDy=0;exitPerimeter=0;" edge="1" parent="D0Xw5VAduO1VgtQK8KO7-1" source="ZV_9s8rY1GRgmeanMDsg-0" target="ZV_9s8rY1GRgmeanMDsg-2">
          <mxGeometry relative="1" as="geometry" />
        </mxCell>
        <mxCell id="ZV_9s8rY1GRgmeanMDsg-7" style="edgeStyle=orthogonalEdgeStyle;rounded=0;orthogonalLoop=1;jettySize=auto;html=1;" edge="1" parent="D0Xw5VAduO1VgtQK8KO7-1" source="ZV_9s8rY1GRgmeanMDsg-2">
          <mxGeometry relative="1" as="geometry">
            <mxPoint x="660" y="370" as="targetPoint" />
          </mxGeometry>
        </mxCell>
        <mxCell id="ZV_9s8rY1GRgmeanMDsg-9" value="chosen" style="edgeLabel;html=1;align=center;verticalAlign=middle;resizable=0;points=[];" vertex="1" connectable="0" parent="ZV_9s8rY1GRgmeanMDsg-7">
          <mxGeometry x="0.4107" y="2" relative="1" as="geometry">
            <mxPoint x="2" y="7" as="offset" />
          </mxGeometry>
        </mxCell>
        <mxCell id="ZV_9s8rY1GRgmeanMDsg-10" style="edgeStyle=orthogonalEdgeStyle;rounded=0;orthogonalLoop=1;jettySize=auto;html=1;" edge="1" parent="D0Xw5VAduO1VgtQK8KO7-1" target="ZV_9s8rY1GRgmeanMDsg-2">
          <mxGeometry relative="1" as="geometry">
            <mxPoint x="759.9999999999998" y="460" as="sourcePoint" />
          </mxGeometry>
        </mxCell>
        <mxCell id="ZV_9s8rY1GRgmeanMDsg-11" value="expert" style="edgeLabel;html=1;align=center;verticalAlign=middle;resizable=0;points=[];" vertex="1" connectable="0" parent="ZV_9s8rY1GRgmeanMDsg-10">
          <mxGeometry x="-0.2043" y="2" relative="1" as="geometry">
            <mxPoint y="-8" as="offset" />
          </mxGeometry>
        </mxCell>
        <mxCell id="ZV_9s8rY1GRgmeanMDsg-2" value="Pre-Gated" style="rounded=0;whiteSpace=wrap;html=1;" vertex="1" parent="D0Xw5VAduO1VgtQK8KO7-1">
          <mxGeometry x="620" y="430" width="80" height="60" as="geometry" />
        </mxCell>
        <mxCell id="ZV_9s8rY1GRgmeanMDsg-12" value="" style="endArrow=classic;html=1;rounded=0;" edge="1" parent="D0Xw5VAduO1VgtQK8KO7-1">
          <mxGeometry width="50" height="50" relative="1" as="geometry">
            <mxPoint x="570" y="370" as="sourcePoint" />
            <mxPoint x="380" y="370" as="targetPoint" />
            <Array as="points">
              <mxPoint x="570" y="330" />
              <mxPoint x="380" y="330" />
            </Array>
          </mxGeometry>
        </mxCell>
        <mxCell id="ZV_9s8rY1GRgmeanMDsg-15" value="" style="endArrow=classic;html=1;rounded=0;" edge="1" parent="D0Xw5VAduO1VgtQK8KO7-1">
          <mxGeometry width="50" height="50" relative="1" as="geometry">
            <mxPoint x="430" y="640" as="sourcePoint" />
            <mxPoint x="615" y="630" as="targetPoint" />
            <Array as="points">
              <mxPoint x="430" y="680" />
              <mxPoint x="615" y="680" />
            </Array>
          </mxGeometry>
        </mxCell>
        <mxCell id="ZV_9s8rY1GRgmeanMDsg-16" value="GB" style="rounded=0;whiteSpace=wrap;html=1;" vertex="1" parent="D0Xw5VAduO1VgtQK8KO7-1">
          <mxGeometry x="430" y="720" width="180" height="80" as="geometry" />
        </mxCell>
        <mxCell id="ZV_9s8rY1GRgmeanMDsg-18" value="" style="endArrow=classic;html=1;rounded=0;entryX=0;entryY=0.5;entryDx=0;entryDy=0;" edge="1" parent="D0Xw5VAduO1VgtQK8KO7-1" target="ZV_9s8rY1GRgmeanMDsg-16">
          <mxGeometry width="50" height="50" relative="1" as="geometry">
            <mxPoint x="340" y="640" as="sourcePoint" />
            <mxPoint x="390" y="620" as="targetPoint" />
            <Array as="points">
              <mxPoint x="340" y="760" />
            </Array>
          </mxGeometry>
        </mxCell>
        <mxCell id="ZV_9s8rY1GRgmeanMDsg-19" value="" style="endArrow=classic;html=1;rounded=0;exitX=1;exitY=0.5;exitDx=0;exitDy=0;" edge="1" parent="D0Xw5VAduO1VgtQK8KO7-1" source="ZV_9s8rY1GRgmeanMDsg-16">
          <mxGeometry width="50" height="50" relative="1" as="geometry">
            <mxPoint x="730" y="630" as="sourcePoint" />
            <mxPoint x="760" y="460" as="targetPoint" />
            <Array as="points">
              <mxPoint x="790" y="760" />
              <mxPoint x="790" y="460" />
            </Array>
          </mxGeometry>
        </mxCell>
        <mxCell id="ZV_9s8rY1GRgmeanMDsg-20" value="GB" style="rounded=0;whiteSpace=wrap;html=1;" vertex="1" parent="D0Xw5VAduO1VgtQK8KO7-1">
          <mxGeometry x="380" y="210" width="180" height="80" as="geometry" />
        </mxCell>
        <mxCell id="ZV_9s8rY1GRgmeanMDsg-22" value="" style="endArrow=classic;html=1;rounded=0;entryX=1;entryY=0.5;entryDx=0;entryDy=0;" edge="1" parent="D0Xw5VAduO1VgtQK8KO7-1" target="ZV_9s8rY1GRgmeanMDsg-20">
          <mxGeometry width="50" height="50" relative="1" as="geometry">
            <mxPoint x="660" y="370" as="sourcePoint" />
            <mxPoint x="740" y="310" as="targetPoint" />
            <Array as="points">
              <mxPoint x="660" y="250" />
            </Array>
          </mxGeometry>
        </mxCell>
        <mxCell id="ZV_9s8rY1GRgmeanMDsg-24" value="" style="endArrow=classic;html=1;rounded=0;exitX=0;exitY=0.5;exitDx=0;exitDy=0;" edge="1" parent="D0Xw5VAduO1VgtQK8KO7-1" source="ZV_9s8rY1GRgmeanMDsg-20">
          <mxGeometry width="50" height="50" relative="1" as="geometry">
            <mxPoint x="260" y="250" as="sourcePoint" />
            <mxPoint x="240" y="550" as="targetPoint" />
            <Array as="points">
              <mxPoint x="210" y="250" />
              <mxPoint x="210" y="550" />
            </Array>
          </mxGeometry>
        </mxCell>
      </root>
    </mxGraphModel>
  </diagram>
  <diagram name="Color Ping-pong" id="OGCmaDGPBtzn3HCO7xIQ">
    <mxGraphModel dx="1173" dy="819" grid="1" gridSize="10" guides="1" tooltips="1" connect="1" arrows="1" fold="1" page="1" pageScale="1" pageWidth="850" pageHeight="1100" math="0" shadow="0">
      <root>
        <mxCell id="jF7lTb4FuDAx_ThXaByh-0" />
        <mxCell id="jF7lTb4FuDAx_ThXaByh-1" parent="jF7lTb4FuDAx_ThXaByh-0" />
        <mxCell id="jF7lTb4FuDAx_ThXaByh-2" value="" style="whiteSpace=wrap;html=1;aspect=fixed;fillColor=none;dashed=1;" vertex="1" parent="jF7lTb4FuDAx_ThXaByh-1">
          <mxGeometry x="170" y="170" width="650" height="650" as="geometry" />
        </mxCell>
        <mxCell id="jF7lTb4FuDAx_ThXaByh-3" value="" style="rounded=0;whiteSpace=wrap;html=1;fillColor=none;dashed=1;" vertex="1" parent="jF7lTb4FuDAx_ThXaByh-1">
          <mxGeometry x="520" y="410" width="190" height="210" as="geometry" />
        </mxCell>
        <mxCell id="jF7lTb4FuDAx_ThXaByh-4" value="" style="rounded=0;whiteSpace=wrap;html=1;fillColor=none;dashed=1;" vertex="1" parent="jF7lTb4FuDAx_ThXaByh-1">
          <mxGeometry x="290" y="410" width="190" height="210" as="geometry" />
        </mxCell>
        <mxCell id="jF7lTb4FuDAx_ThXaByh-5" value="Attention #1" style="rounded=0;whiteSpace=wrap;html=1;fillColor=#f8cecc;strokeColor=#b85450;" vertex="1" parent="jF7lTb4FuDAx_ThXaByh-1">
          <mxGeometry x="300" y="430" width="170" height="60" as="geometry" />
        </mxCell>
        <mxCell id="jF7lTb4FuDAx_ThXaByh-6" style="edgeStyle=orthogonalEdgeStyle;rounded=0;orthogonalLoop=1;jettySize=auto;html=1;exitX=0.233;exitY=1.028;exitDx=0;exitDy=0;exitPerimeter=0;" edge="1" parent="jF7lTb4FuDAx_ThXaByh-1" source="jF7lTb4FuDAx_ThXaByh-5" target="jF7lTb4FuDAx_ThXaByh-9">
          <mxGeometry relative="1" as="geometry" />
        </mxCell>
        <mxCell id="jF7lTb4FuDAx_ThXaByh-7" style="edgeStyle=orthogonalEdgeStyle;rounded=0;orthogonalLoop=1;jettySize=auto;html=1;" edge="1" parent="jF7lTb4FuDAx_ThXaByh-1" source="jF7lTb4FuDAx_ThXaByh-9">
          <mxGeometry relative="1" as="geometry">
            <mxPoint x="340" y="640" as="targetPoint" />
          </mxGeometry>
        </mxCell>
        <mxCell id="jF7lTb4FuDAx_ThXaByh-8" value="chosen" style="edgeLabel;html=1;align=center;verticalAlign=middle;resizable=0;points=[];" vertex="1" connectable="0" parent="jF7lTb4FuDAx_ThXaByh-7">
          <mxGeometry x="-0.4146" relative="1" as="geometry">
            <mxPoint as="offset" />
          </mxGeometry>
        </mxCell>
        <mxCell id="jF7lTb4FuDAx_ThXaByh-9" value="Pre-Gated #1" style="rounded=0;whiteSpace=wrap;html=1;fillColor=#fff2cc;strokeColor=#d6b656;" vertex="1" parent="jF7lTb4FuDAx_ThXaByh-1">
          <mxGeometry x="300" y="520" width="80" height="60" as="geometry" />
        </mxCell>
        <mxCell id="jF7lTb4FuDAx_ThXaByh-10" style="edgeStyle=orthogonalEdgeStyle;rounded=0;orthogonalLoop=1;jettySize=auto;html=1;exitX=0.766;exitY=1.015;exitDx=0;exitDy=0;exitPerimeter=0;" edge="1" parent="jF7lTb4FuDAx_ThXaByh-1" source="jF7lTb4FuDAx_ThXaByh-5" target="jF7lTb4FuDAx_ThXaByh-13">
          <mxGeometry relative="1" as="geometry" />
        </mxCell>
        <mxCell id="jF7lTb4FuDAx_ThXaByh-11" style="edgeStyle=orthogonalEdgeStyle;rounded=0;orthogonalLoop=1;jettySize=auto;html=1;" edge="1" parent="jF7lTb4FuDAx_ThXaByh-1" source="jF7lTb4FuDAx_ThXaByh-13">
          <mxGeometry relative="1" as="geometry">
            <mxPoint x="430" y="640" as="targetPoint" />
          </mxGeometry>
        </mxCell>
        <mxCell id="jF7lTb4FuDAx_ThXaByh-12" value="data output" style="edgeLabel;html=1;align=center;verticalAlign=middle;resizable=0;points=[];" vertex="1" connectable="0" parent="jF7lTb4FuDAx_ThXaByh-11">
          <mxGeometry x="-0.3768" relative="1" as="geometry">
            <mxPoint as="offset" />
          </mxGeometry>
        </mxCell>
        <mxCell id="jF7lTb4FuDAx_ThXaByh-13" value="FFN #1" style="rounded=0;whiteSpace=wrap;html=1;fillColor=#d5e8d4;strokeColor=#82b366;" vertex="1" parent="jF7lTb4FuDAx_ThXaByh-1">
          <mxGeometry x="390" y="520" width="80" height="60" as="geometry" />
        </mxCell>
        <mxCell id="jF7lTb4FuDAx_ThXaByh-14" value="" style="endArrow=classic;html=1;rounded=0;" edge="1" parent="jF7lTb4FuDAx_ThXaByh-1">
          <mxGeometry width="50" height="50" relative="1" as="geometry">
            <mxPoint x="380" y="370" as="sourcePoint" />
            <mxPoint x="380" y="430" as="targetPoint" />
          </mxGeometry>
        </mxCell>
        <mxCell id="jF7lTb4FuDAx_ThXaByh-15" value="data input" style="edgeLabel;html=1;align=center;verticalAlign=middle;resizable=0;points=[];" vertex="1" connectable="0" parent="jF7lTb4FuDAx_ThXaByh-14">
          <mxGeometry x="-0.1651" y="1" relative="1" as="geometry">
            <mxPoint x="-1" as="offset" />
          </mxGeometry>
        </mxCell>
        <mxCell id="jF7lTb4FuDAx_ThXaByh-16" value="" style="endArrow=classic;html=1;rounded=0;entryX=0;entryY=0.5;entryDx=0;entryDy=0;" edge="1" parent="jF7lTb4FuDAx_ThXaByh-1" target="jF7lTb4FuDAx_ThXaByh-9">
          <mxGeometry width="50" height="50" relative="1" as="geometry">
            <mxPoint x="240" y="550" as="sourcePoint" />
            <mxPoint x="260" y="540" as="targetPoint" />
          </mxGeometry>
        </mxCell>
        <mxCell id="jF7lTb4FuDAx_ThXaByh-17" value="expert" style="edgeLabel;html=1;align=center;verticalAlign=middle;resizable=0;points=[];" vertex="1" connectable="0" parent="jF7lTb4FuDAx_ThXaByh-16">
          <mxGeometry x="0.2291" relative="1" as="geometry">
            <mxPoint x="-7" y="-10" as="offset" />
          </mxGeometry>
        </mxCell>
        <mxCell id="jF7lTb4FuDAx_ThXaByh-18" style="edgeStyle=orthogonalEdgeStyle;rounded=0;orthogonalLoop=1;jettySize=auto;html=1;" edge="1" parent="jF7lTb4FuDAx_ThXaByh-1" target="jF7lTb4FuDAx_ThXaByh-20">
          <mxGeometry relative="1" as="geometry">
            <mxPoint x="615" y="630" as="sourcePoint" />
          </mxGeometry>
        </mxCell>
        <mxCell id="jF7lTb4FuDAx_ThXaByh-19" value="data input" style="edgeLabel;html=1;align=center;verticalAlign=middle;resizable=0;points=[];" vertex="1" connectable="0" parent="jF7lTb4FuDAx_ThXaByh-18">
          <mxGeometry x="-0.2894" relative="1" as="geometry">
            <mxPoint y="-12" as="offset" />
          </mxGeometry>
        </mxCell>
        <mxCell id="jF7lTb4FuDAx_ThXaByh-20" value="Attention #2" style="rounded=0;whiteSpace=wrap;html=1;fillColor=#f8cecc;strokeColor=#b85450;" vertex="1" parent="jF7lTb4FuDAx_ThXaByh-1">
          <mxGeometry x="530" y="520" width="170" height="60" as="geometry" />
        </mxCell>
        <mxCell id="jF7lTb4FuDAx_ThXaByh-21" style="edgeStyle=orthogonalEdgeStyle;rounded=0;orthogonalLoop=1;jettySize=auto;html=1;exitX=0.233;exitY=0;exitDx=0;exitDy=0;exitPerimeter=0;" edge="1" parent="jF7lTb4FuDAx_ThXaByh-1" source="jF7lTb4FuDAx_ThXaByh-20" target="jF7lTb4FuDAx_ThXaByh-24">
          <mxGeometry relative="1" as="geometry" />
        </mxCell>
        <mxCell id="jF7lTb4FuDAx_ThXaByh-22" style="edgeStyle=orthogonalEdgeStyle;rounded=0;orthogonalLoop=1;jettySize=auto;html=1;" edge="1" parent="jF7lTb4FuDAx_ThXaByh-1" source="jF7lTb4FuDAx_ThXaByh-24">
          <mxGeometry relative="1" as="geometry">
            <mxPoint x="570" y="370" as="targetPoint" />
          </mxGeometry>
        </mxCell>
        <mxCell id="jF7lTb4FuDAx_ThXaByh-23" value="data output" style="edgeLabel;html=1;align=center;verticalAlign=middle;resizable=0;points=[];" vertex="1" connectable="0" parent="jF7lTb4FuDAx_ThXaByh-22">
          <mxGeometry x="0.333" y="-1" relative="1" as="geometry">
            <mxPoint x="-1" y="5" as="offset" />
          </mxGeometry>
        </mxCell>
        <mxCell id="jF7lTb4FuDAx_ThXaByh-24" value="FFN #2" style="rounded=0;whiteSpace=wrap;html=1;fillColor=#d5e8d4;strokeColor=#82b366;" vertex="1" parent="jF7lTb4FuDAx_ThXaByh-1">
          <mxGeometry x="530" y="430" width="80" height="60" as="geometry" />
        </mxCell>
        <mxCell id="jF7lTb4FuDAx_ThXaByh-25" style="edgeStyle=orthogonalEdgeStyle;rounded=0;orthogonalLoop=1;jettySize=auto;html=1;exitX=0.77;exitY=-0.053;exitDx=0;exitDy=0;exitPerimeter=0;" edge="1" parent="jF7lTb4FuDAx_ThXaByh-1" source="jF7lTb4FuDAx_ThXaByh-20" target="jF7lTb4FuDAx_ThXaByh-30">
          <mxGeometry relative="1" as="geometry" />
        </mxCell>
        <mxCell id="jF7lTb4FuDAx_ThXaByh-26" style="edgeStyle=orthogonalEdgeStyle;rounded=0;orthogonalLoop=1;jettySize=auto;html=1;" edge="1" parent="jF7lTb4FuDAx_ThXaByh-1" source="jF7lTb4FuDAx_ThXaByh-30">
          <mxGeometry relative="1" as="geometry">
            <mxPoint x="660" y="370" as="targetPoint" />
          </mxGeometry>
        </mxCell>
        <mxCell id="jF7lTb4FuDAx_ThXaByh-27" value="chosen" style="edgeLabel;html=1;align=center;verticalAlign=middle;resizable=0;points=[];" vertex="1" connectable="0" parent="jF7lTb4FuDAx_ThXaByh-26">
          <mxGeometry x="0.4107" y="2" relative="1" as="geometry">
            <mxPoint x="2" y="7" as="offset" />
          </mxGeometry>
        </mxCell>
        <mxCell id="jF7lTb4FuDAx_ThXaByh-28" style="edgeStyle=orthogonalEdgeStyle;rounded=0;orthogonalLoop=1;jettySize=auto;html=1;" edge="1" parent="jF7lTb4FuDAx_ThXaByh-1" target="jF7lTb4FuDAx_ThXaByh-30">
          <mxGeometry relative="1" as="geometry">
            <mxPoint x="759.9999999999998" y="460" as="sourcePoint" />
          </mxGeometry>
        </mxCell>
        <mxCell id="jF7lTb4FuDAx_ThXaByh-29" value="expert" style="edgeLabel;html=1;align=center;verticalAlign=middle;resizable=0;points=[];" vertex="1" connectable="0" parent="jF7lTb4FuDAx_ThXaByh-28">
          <mxGeometry x="-0.2043" y="2" relative="1" as="geometry">
            <mxPoint y="-8" as="offset" />
          </mxGeometry>
        </mxCell>
        <mxCell id="jF7lTb4FuDAx_ThXaByh-30" value="Pre-Gated #2" style="rounded=0;whiteSpace=wrap;html=1;fillColor=#fff2cc;strokeColor=#d6b656;" vertex="1" parent="jF7lTb4FuDAx_ThXaByh-1">
          <mxGeometry x="620" y="430" width="80" height="60" as="geometry" />
        </mxCell>
        <mxCell id="jF7lTb4FuDAx_ThXaByh-31" value="" style="endArrow=classic;html=1;rounded=0;" edge="1" parent="jF7lTb4FuDAx_ThXaByh-1">
          <mxGeometry width="50" height="50" relative="1" as="geometry">
            <mxPoint x="570" y="370" as="sourcePoint" />
            <mxPoint x="380" y="370" as="targetPoint" />
            <Array as="points">
              <mxPoint x="570" y="330" />
              <mxPoint x="380" y="330" />
            </Array>
          </mxGeometry>
        </mxCell>
        <mxCell id="jF7lTb4FuDAx_ThXaByh-32" value="" style="endArrow=classic;html=1;rounded=0;" edge="1" parent="jF7lTb4FuDAx_ThXaByh-1">
          <mxGeometry width="50" height="50" relative="1" as="geometry">
            <mxPoint x="430" y="640" as="sourcePoint" />
            <mxPoint x="615" y="630" as="targetPoint" />
            <Array as="points">
              <mxPoint x="430" y="680" />
              <mxPoint x="615" y="680" />
            </Array>
          </mxGeometry>
        </mxCell>
        <mxCell id="jF7lTb4FuDAx_ThXaByh-33" value="GB" style="rounded=0;whiteSpace=wrap;html=1;" vertex="1" parent="jF7lTb4FuDAx_ThXaByh-1">
          <mxGeometry x="430" y="720" width="180" height="80" as="geometry" />
        </mxCell>
        <mxCell id="jF7lTb4FuDAx_ThXaByh-34" value="" style="endArrow=classic;html=1;rounded=0;entryX=0;entryY=0.5;entryDx=0;entryDy=0;" edge="1" parent="jF7lTb4FuDAx_ThXaByh-1" target="jF7lTb4FuDAx_ThXaByh-33">
          <mxGeometry width="50" height="50" relative="1" as="geometry">
            <mxPoint x="340" y="640" as="sourcePoint" />
            <mxPoint x="390" y="620" as="targetPoint" />
            <Array as="points">
              <mxPoint x="340" y="760" />
            </Array>
          </mxGeometry>
        </mxCell>
        <mxCell id="jF7lTb4FuDAx_ThXaByh-35" value="" style="endArrow=classic;html=1;rounded=0;exitX=1;exitY=0.5;exitDx=0;exitDy=0;" edge="1" parent="jF7lTb4FuDAx_ThXaByh-1" source="jF7lTb4FuDAx_ThXaByh-33">
          <mxGeometry width="50" height="50" relative="1" as="geometry">
            <mxPoint x="730" y="630" as="sourcePoint" />
            <mxPoint x="760" y="460" as="targetPoint" />
            <Array as="points">
              <mxPoint x="790" y="760" />
              <mxPoint x="790" y="460" />
            </Array>
          </mxGeometry>
        </mxCell>
        <mxCell id="jF7lTb4FuDAx_ThXaByh-36" value="GB" style="rounded=0;whiteSpace=wrap;html=1;" vertex="1" parent="jF7lTb4FuDAx_ThXaByh-1">
          <mxGeometry x="380" y="210" width="180" height="80" as="geometry" />
        </mxCell>
        <mxCell id="jF7lTb4FuDAx_ThXaByh-37" value="" style="endArrow=classic;html=1;rounded=0;entryX=1;entryY=0.5;entryDx=0;entryDy=0;" edge="1" parent="jF7lTb4FuDAx_ThXaByh-1" target="jF7lTb4FuDAx_ThXaByh-36">
          <mxGeometry width="50" height="50" relative="1" as="geometry">
            <mxPoint x="660" y="370" as="sourcePoint" />
            <mxPoint x="740" y="310" as="targetPoint" />
            <Array as="points">
              <mxPoint x="660" y="250" />
            </Array>
          </mxGeometry>
        </mxCell>
        <mxCell id="jF7lTb4FuDAx_ThXaByh-38" value="" style="endArrow=classic;html=1;rounded=0;exitX=0;exitY=0.5;exitDx=0;exitDy=0;" edge="1" parent="jF7lTb4FuDAx_ThXaByh-1" source="jF7lTb4FuDAx_ThXaByh-36">
          <mxGeometry width="50" height="50" relative="1" as="geometry">
            <mxPoint x="260" y="250" as="sourcePoint" />
            <mxPoint x="240" y="550" as="targetPoint" />
            <Array as="points">
              <mxPoint x="210" y="250" />
              <mxPoint x="210" y="550" />
            </Array>
          </mxGeometry>
        </mxCell>
      </root>
    </mxGraphModel>
  </diagram>
  <diagram id="fXsDxuBhqOLZsLrDuiC8" name="Pipeline">
    <mxGraphModel dx="1173" dy="819" grid="1" gridSize="10" guides="1" tooltips="1" connect="1" arrows="1" fold="1" page="1" pageScale="1" pageWidth="850" pageHeight="1100" math="0" shadow="0">
      <root>
        <mxCell id="0" />
        <mxCell id="1" parent="0" />
        <mxCell id="UfsnAwQ9ihBSdZ9u-ify-1" value="" style="shape=table;startSize=0;container=1;collapsible=0;childLayout=tableLayout;" vertex="1" parent="1">
          <mxGeometry x="60" y="280" width="552" height="348" as="geometry" />
        </mxCell>
        <mxCell id="UfsnAwQ9ihBSdZ9u-ify-2" value="" style="shape=tableRow;horizontal=0;startSize=0;swimlaneHead=0;swimlaneBody=0;strokeColor=inherit;top=0;left=0;bottom=0;right=0;collapsible=0;dropTarget=0;fillColor=none;points=[[0,0.5],[1,0.5]];portConstraint=eastwest;" vertex="1" parent="UfsnAwQ9ihBSdZ9u-ify-1">
          <mxGeometry width="552" height="39" as="geometry" />
        </mxCell>
        <mxCell id="UfsnAwQ9ihBSdZ9u-ify-58" value="t" style="shape=partialRectangle;html=1;whiteSpace=wrap;connectable=0;strokeColor=inherit;overflow=hidden;fillColor=none;top=0;left=0;bottom=0;right=0;pointerEvents=1;" vertex="1" parent="UfsnAwQ9ihBSdZ9u-ify-2">
          <mxGeometry width="78" height="39" as="geometry">
            <mxRectangle width="78" height="39" as="alternateBounds" />
          </mxGeometry>
        </mxCell>
        <mxCell id="UfsnAwQ9ihBSdZ9u-ify-3" value="Attention #1" style="shape=partialRectangle;html=1;whiteSpace=wrap;connectable=0;strokeColor=#b85450;overflow=hidden;fillColor=#f8cecc;top=0;left=0;bottom=0;right=0;pointerEvents=1;" vertex="1" parent="UfsnAwQ9ihBSdZ9u-ify-2">
          <mxGeometry x="78" width="80" height="39" as="geometry">
            <mxRectangle width="80" height="39" as="alternateBounds" />
          </mxGeometry>
        </mxCell>
        <mxCell id="UfsnAwQ9ihBSdZ9u-ify-4" value="Pre-Gated #1" style="shape=partialRectangle;html=1;whiteSpace=wrap;connectable=0;strokeColor=#d6b656;overflow=hidden;fillColor=#fff2cc;top=0;left=0;bottom=0;right=0;pointerEvents=1;" vertex="1" parent="UfsnAwQ9ihBSdZ9u-ify-2">
          <mxGeometry x="158" width="79" height="39" as="geometry">
            <mxRectangle width="79" height="39" as="alternateBounds" />
          </mxGeometry>
        </mxCell>
        <mxCell id="UfsnAwQ9ihBSdZ9u-ify-5" value="FFN #1" style="shape=partialRectangle;html=1;whiteSpace=wrap;connectable=0;strokeColor=#82b366;overflow=hidden;fillColor=#d5e8d4;top=0;left=0;bottom=0;right=0;pointerEvents=1;" vertex="1" parent="UfsnAwQ9ihBSdZ9u-ify-2">
          <mxGeometry x="237" width="78" height="39" as="geometry">
            <mxRectangle width="78" height="39" as="alternateBounds" />
          </mxGeometry>
        </mxCell>
        <mxCell id="UfsnAwQ9ihBSdZ9u-ify-6" value="Attention #2" style="shape=partialRectangle;html=1;whiteSpace=wrap;connectable=0;strokeColor=#b85450;overflow=hidden;fillColor=#f8cecc;top=0;left=0;bottom=0;right=0;pointerEvents=1;" vertex="1" parent="UfsnAwQ9ihBSdZ9u-ify-2">
          <mxGeometry x="315" width="78" height="39" as="geometry">
            <mxRectangle width="78" height="39" as="alternateBounds" />
          </mxGeometry>
        </mxCell>
        <mxCell id="UfsnAwQ9ihBSdZ9u-ify-7" value="Pre-Gated #2" style="shape=partialRectangle;html=1;whiteSpace=wrap;connectable=0;strokeColor=#d6b656;overflow=hidden;fillColor=#fff2cc;top=0;left=0;bottom=0;right=0;pointerEvents=1;" vertex="1" parent="UfsnAwQ9ihBSdZ9u-ify-2">
          <mxGeometry x="393" width="80" height="39" as="geometry">
            <mxRectangle width="80" height="39" as="alternateBounds" />
          </mxGeometry>
        </mxCell>
        <mxCell id="UfsnAwQ9ihBSdZ9u-ify-8" value="FFN #2" style="shape=partialRectangle;html=1;whiteSpace=wrap;connectable=0;strokeColor=#82b366;overflow=hidden;fillColor=#d5e8d4;top=0;left=0;bottom=0;right=0;pointerEvents=1;" vertex="1" parent="UfsnAwQ9ihBSdZ9u-ify-2">
          <mxGeometry x="473" width="79" height="39" as="geometry">
            <mxRectangle width="79" height="39" as="alternateBounds" />
          </mxGeometry>
        </mxCell>
        <mxCell id="UfsnAwQ9ihBSdZ9u-ify-10" value="" style="shape=tableRow;horizontal=0;startSize=0;swimlaneHead=0;swimlaneBody=0;strokeColor=inherit;top=0;left=0;bottom=0;right=0;collapsible=0;dropTarget=0;fillColor=none;points=[[0,0.5],[1,0.5]];portConstraint=eastwest;" vertex="1" parent="UfsnAwQ9ihBSdZ9u-ify-1">
          <mxGeometry y="39" width="552" height="38" as="geometry" />
        </mxCell>
        <mxCell id="UfsnAwQ9ihBSdZ9u-ify-59" value="0" style="shape=partialRectangle;html=1;whiteSpace=wrap;connectable=0;strokeColor=inherit;overflow=hidden;fillColor=none;top=0;left=0;bottom=0;right=0;pointerEvents=1;" vertex="1" parent="UfsnAwQ9ihBSdZ9u-ify-10">
          <mxGeometry width="78" height="38" as="geometry">
            <mxRectangle width="78" height="38" as="alternateBounds" />
          </mxGeometry>
        </mxCell>
        <mxCell id="UfsnAwQ9ihBSdZ9u-ify-11" value="W" style="shape=partialRectangle;html=1;whiteSpace=wrap;connectable=0;strokeColor=#b85450;overflow=hidden;fillColor=#f8cecc;top=0;left=0;bottom=0;right=0;pointerEvents=1;" vertex="1" parent="UfsnAwQ9ihBSdZ9u-ify-10">
          <mxGeometry x="78" width="80" height="38" as="geometry">
            <mxRectangle width="80" height="38" as="alternateBounds" />
          </mxGeometry>
        </mxCell>
        <mxCell id="UfsnAwQ9ihBSdZ9u-ify-12" value="" style="shape=partialRectangle;html=1;whiteSpace=wrap;connectable=0;strokeColor=inherit;overflow=hidden;fillColor=none;top=0;left=0;bottom=0;right=0;pointerEvents=1;" vertex="1" parent="UfsnAwQ9ihBSdZ9u-ify-10">
          <mxGeometry x="158" width="79" height="38" as="geometry">
            <mxRectangle width="79" height="38" as="alternateBounds" />
          </mxGeometry>
        </mxCell>
        <mxCell id="UfsnAwQ9ihBSdZ9u-ify-13" value="" style="shape=partialRectangle;html=1;whiteSpace=wrap;connectable=0;strokeColor=inherit;overflow=hidden;fillColor=none;top=0;left=0;bottom=0;right=0;pointerEvents=1;" vertex="1" parent="UfsnAwQ9ihBSdZ9u-ify-10">
          <mxGeometry x="237" width="78" height="38" as="geometry">
            <mxRectangle width="78" height="38" as="alternateBounds" />
          </mxGeometry>
        </mxCell>
        <mxCell id="UfsnAwQ9ihBSdZ9u-ify-14" value="" style="shape=partialRectangle;html=1;whiteSpace=wrap;connectable=0;strokeColor=inherit;overflow=hidden;fillColor=none;top=0;left=0;bottom=0;right=0;pointerEvents=1;" vertex="1" parent="UfsnAwQ9ihBSdZ9u-ify-10">
          <mxGeometry x="315" width="78" height="38" as="geometry">
            <mxRectangle width="78" height="38" as="alternateBounds" />
          </mxGeometry>
        </mxCell>
        <mxCell id="UfsnAwQ9ihBSdZ9u-ify-15" value="" style="shape=partialRectangle;html=1;whiteSpace=wrap;connectable=0;strokeColor=inherit;overflow=hidden;fillColor=none;top=0;left=0;bottom=0;right=0;pointerEvents=1;" vertex="1" parent="UfsnAwQ9ihBSdZ9u-ify-10">
          <mxGeometry x="393" width="80" height="38" as="geometry">
            <mxRectangle width="80" height="38" as="alternateBounds" />
          </mxGeometry>
        </mxCell>
        <mxCell id="UfsnAwQ9ihBSdZ9u-ify-16" value="" style="shape=partialRectangle;html=1;whiteSpace=wrap;connectable=0;strokeColor=inherit;overflow=hidden;fillColor=none;top=0;left=0;bottom=0;right=0;pointerEvents=1;" vertex="1" parent="UfsnAwQ9ihBSdZ9u-ify-10">
          <mxGeometry x="473" width="79" height="38" as="geometry">
            <mxRectangle width="79" height="38" as="alternateBounds" />
          </mxGeometry>
        </mxCell>
        <mxCell id="UfsnAwQ9ihBSdZ9u-ify-18" value="" style="shape=tableRow;horizontal=0;startSize=0;swimlaneHead=0;swimlaneBody=0;strokeColor=inherit;top=0;left=0;bottom=0;right=0;collapsible=0;dropTarget=0;fillColor=none;points=[[0,0.5],[1,0.5]];portConstraint=eastwest;" vertex="1" parent="UfsnAwQ9ihBSdZ9u-ify-1">
          <mxGeometry y="77" width="552" height="39" as="geometry" />
        </mxCell>
        <mxCell id="UfsnAwQ9ihBSdZ9u-ify-60" value="1" style="shape=partialRectangle;html=1;whiteSpace=wrap;connectable=0;strokeColor=inherit;overflow=hidden;fillColor=none;top=0;left=0;bottom=0;right=0;pointerEvents=1;" vertex="1" parent="UfsnAwQ9ihBSdZ9u-ify-18">
          <mxGeometry width="78" height="39" as="geometry">
            <mxRectangle width="78" height="39" as="alternateBounds" />
          </mxGeometry>
        </mxCell>
        <mxCell id="UfsnAwQ9ihBSdZ9u-ify-19" value="C" style="shape=partialRectangle;html=1;whiteSpace=wrap;connectable=0;strokeColor=#b85450;overflow=hidden;fillColor=#f8cecc;top=0;left=0;bottom=0;right=0;pointerEvents=1;" vertex="1" parent="UfsnAwQ9ihBSdZ9u-ify-18">
          <mxGeometry x="78" width="80" height="39" as="geometry">
            <mxRectangle width="80" height="39" as="alternateBounds" />
          </mxGeometry>
        </mxCell>
        <mxCell id="UfsnAwQ9ihBSdZ9u-ify-20" value="" style="shape=partialRectangle;html=1;whiteSpace=wrap;connectable=0;strokeColor=inherit;overflow=hidden;fillColor=none;top=0;left=0;bottom=0;right=0;pointerEvents=1;" vertex="1" parent="UfsnAwQ9ihBSdZ9u-ify-18">
          <mxGeometry x="158" width="79" height="39" as="geometry">
            <mxRectangle width="79" height="39" as="alternateBounds" />
          </mxGeometry>
        </mxCell>
        <mxCell id="UfsnAwQ9ihBSdZ9u-ify-21" value="W" style="shape=partialRectangle;html=1;whiteSpace=wrap;connectable=0;strokeColor=#82b366;overflow=hidden;fillColor=#d5e8d4;top=0;left=0;bottom=0;right=0;pointerEvents=1;" vertex="1" parent="UfsnAwQ9ihBSdZ9u-ify-18">
          <mxGeometry x="237" width="78" height="39" as="geometry">
            <mxRectangle width="78" height="39" as="alternateBounds" />
          </mxGeometry>
        </mxCell>
        <mxCell id="UfsnAwQ9ihBSdZ9u-ify-22" value="" style="shape=partialRectangle;html=1;whiteSpace=wrap;connectable=0;strokeColor=inherit;overflow=hidden;fillColor=none;top=0;left=0;bottom=0;right=0;pointerEvents=1;" vertex="1" parent="UfsnAwQ9ihBSdZ9u-ify-18">
          <mxGeometry x="315" width="78" height="39" as="geometry">
            <mxRectangle width="78" height="39" as="alternateBounds" />
          </mxGeometry>
        </mxCell>
        <mxCell id="UfsnAwQ9ihBSdZ9u-ify-23" value="" style="shape=partialRectangle;html=1;whiteSpace=wrap;connectable=0;strokeColor=inherit;overflow=hidden;fillColor=none;top=0;left=0;bottom=0;right=0;pointerEvents=1;" vertex="1" parent="UfsnAwQ9ihBSdZ9u-ify-18">
          <mxGeometry x="393" width="80" height="39" as="geometry">
            <mxRectangle width="80" height="39" as="alternateBounds" />
          </mxGeometry>
        </mxCell>
        <mxCell id="UfsnAwQ9ihBSdZ9u-ify-24" value="" style="shape=partialRectangle;html=1;whiteSpace=wrap;connectable=0;strokeColor=inherit;overflow=hidden;fillColor=none;top=0;left=0;bottom=0;right=0;pointerEvents=1;" vertex="1" parent="UfsnAwQ9ihBSdZ9u-ify-18">
          <mxGeometry x="473" width="79" height="39" as="geometry">
            <mxRectangle width="79" height="39" as="alternateBounds" />
          </mxGeometry>
        </mxCell>
        <mxCell id="UfsnAwQ9ihBSdZ9u-ify-26" value="" style="shape=tableRow;horizontal=0;startSize=0;swimlaneHead=0;swimlaneBody=0;strokeColor=inherit;top=0;left=0;bottom=0;right=0;collapsible=0;dropTarget=0;fillColor=none;points=[[0,0.5],[1,0.5]];portConstraint=eastwest;" vertex="1" parent="UfsnAwQ9ihBSdZ9u-ify-1">
          <mxGeometry y="116" width="552" height="38" as="geometry" />
        </mxCell>
        <mxCell id="UfsnAwQ9ihBSdZ9u-ify-61" value="2" style="shape=partialRectangle;html=1;whiteSpace=wrap;connectable=0;strokeColor=inherit;overflow=hidden;fillColor=none;top=0;left=0;bottom=0;right=0;pointerEvents=1;" vertex="1" parent="UfsnAwQ9ihBSdZ9u-ify-26">
          <mxGeometry width="78" height="38" as="geometry">
            <mxRectangle width="78" height="38" as="alternateBounds" />
          </mxGeometry>
        </mxCell>
        <mxCell id="UfsnAwQ9ihBSdZ9u-ify-27" value="W" style="shape=partialRectangle;html=1;whiteSpace=wrap;connectable=0;strokeColor=#b85450;overflow=hidden;fillColor=#f8cecc;top=0;left=0;bottom=0;right=0;pointerEvents=1;" vertex="1" parent="UfsnAwQ9ihBSdZ9u-ify-26">
          <mxGeometry x="78" width="80" height="38" as="geometry">
            <mxRectangle width="80" height="38" as="alternateBounds" />
          </mxGeometry>
        </mxCell>
        <mxCell id="UfsnAwQ9ihBSdZ9u-ify-28" value="C" style="shape=partialRectangle;html=1;whiteSpace=wrap;connectable=0;strokeColor=#d6b656;overflow=hidden;fillColor=#fff2cc;top=0;left=0;bottom=0;right=0;pointerEvents=1;" vertex="1" parent="UfsnAwQ9ihBSdZ9u-ify-26">
          <mxGeometry x="158" width="79" height="38" as="geometry">
            <mxRectangle width="79" height="38" as="alternateBounds" />
          </mxGeometry>
        </mxCell>
        <mxCell id="UfsnAwQ9ihBSdZ9u-ify-29" value="C" style="shape=partialRectangle;html=1;whiteSpace=wrap;connectable=0;strokeColor=#82b366;overflow=hidden;fillColor=#d5e8d4;top=0;left=0;bottom=0;right=0;pointerEvents=1;" vertex="1" parent="UfsnAwQ9ihBSdZ9u-ify-26">
          <mxGeometry x="237" width="78" height="38" as="geometry">
            <mxRectangle width="78" height="38" as="alternateBounds" />
          </mxGeometry>
        </mxCell>
        <mxCell id="UfsnAwQ9ihBSdZ9u-ify-30" value="W" style="shape=partialRectangle;html=1;whiteSpace=wrap;connectable=0;strokeColor=#b85450;overflow=hidden;fillColor=#f8cecc;top=0;left=0;bottom=0;right=0;pointerEvents=1;" vertex="1" parent="UfsnAwQ9ihBSdZ9u-ify-26">
          <mxGeometry x="315" width="78" height="38" as="geometry">
            <mxRectangle width="78" height="38" as="alternateBounds" />
          </mxGeometry>
        </mxCell>
        <mxCell id="UfsnAwQ9ihBSdZ9u-ify-31" value="" style="shape=partialRectangle;html=1;whiteSpace=wrap;connectable=0;strokeColor=inherit;overflow=hidden;fillColor=none;top=0;left=0;bottom=0;right=0;pointerEvents=1;" vertex="1" parent="UfsnAwQ9ihBSdZ9u-ify-26">
          <mxGeometry x="393" width="80" height="38" as="geometry">
            <mxRectangle width="80" height="38" as="alternateBounds" />
          </mxGeometry>
        </mxCell>
        <mxCell id="UfsnAwQ9ihBSdZ9u-ify-32" value="" style="shape=partialRectangle;html=1;whiteSpace=wrap;connectable=0;strokeColor=inherit;overflow=hidden;fillColor=none;top=0;left=0;bottom=0;right=0;pointerEvents=1;" vertex="1" parent="UfsnAwQ9ihBSdZ9u-ify-26">
          <mxGeometry x="473" width="79" height="38" as="geometry">
            <mxRectangle width="79" height="38" as="alternateBounds" />
          </mxGeometry>
        </mxCell>
        <mxCell id="UfsnAwQ9ihBSdZ9u-ify-34" value="" style="shape=tableRow;horizontal=0;startSize=0;swimlaneHead=0;swimlaneBody=0;strokeColor=inherit;top=0;left=0;bottom=0;right=0;collapsible=0;dropTarget=0;fillColor=none;points=[[0,0.5],[1,0.5]];portConstraint=eastwest;" vertex="1" parent="UfsnAwQ9ihBSdZ9u-ify-1">
          <mxGeometry y="154" width="552" height="39" as="geometry" />
        </mxCell>
        <mxCell id="UfsnAwQ9ihBSdZ9u-ify-62" value="3" style="shape=partialRectangle;html=1;whiteSpace=wrap;connectable=0;strokeColor=inherit;overflow=hidden;fillColor=none;top=0;left=0;bottom=0;right=0;pointerEvents=1;" vertex="1" parent="UfsnAwQ9ihBSdZ9u-ify-34">
          <mxGeometry width="78" height="39" as="geometry">
            <mxRectangle width="78" height="39" as="alternateBounds" />
          </mxGeometry>
        </mxCell>
        <mxCell id="UfsnAwQ9ihBSdZ9u-ify-35" value="" style="shape=partialRectangle;html=1;whiteSpace=wrap;connectable=0;strokeColor=inherit;overflow=hidden;fillColor=none;top=0;left=0;bottom=0;right=0;pointerEvents=1;" vertex="1" parent="UfsnAwQ9ihBSdZ9u-ify-34">
          <mxGeometry x="78" width="80" height="39" as="geometry">
            <mxRectangle width="80" height="39" as="alternateBounds" />
          </mxGeometry>
        </mxCell>
        <mxCell id="UfsnAwQ9ihBSdZ9u-ify-36" value="" style="shape=partialRectangle;html=1;whiteSpace=wrap;connectable=0;strokeColor=inherit;overflow=hidden;fillColor=none;top=0;left=0;bottom=0;right=0;pointerEvents=1;" vertex="1" parent="UfsnAwQ9ihBSdZ9u-ify-34">
          <mxGeometry x="158" width="79" height="39" as="geometry">
            <mxRectangle width="79" height="39" as="alternateBounds" />
          </mxGeometry>
        </mxCell>
        <mxCell id="UfsnAwQ9ihBSdZ9u-ify-37" value="" style="shape=partialRectangle;html=1;whiteSpace=wrap;connectable=0;strokeColor=inherit;overflow=hidden;fillColor=none;top=0;left=0;bottom=0;right=0;pointerEvents=1;" vertex="1" parent="UfsnAwQ9ihBSdZ9u-ify-34">
          <mxGeometry x="237" width="78" height="39" as="geometry">
            <mxRectangle width="78" height="39" as="alternateBounds" />
          </mxGeometry>
        </mxCell>
        <mxCell id="UfsnAwQ9ihBSdZ9u-ify-38" value="C" style="shape=partialRectangle;html=1;whiteSpace=wrap;connectable=0;strokeColor=#b85450;overflow=hidden;fillColor=#f8cecc;top=0;left=0;bottom=0;right=0;pointerEvents=1;" vertex="1" parent="UfsnAwQ9ihBSdZ9u-ify-34">
          <mxGeometry x="315" width="78" height="39" as="geometry">
            <mxRectangle width="78" height="39" as="alternateBounds" />
          </mxGeometry>
        </mxCell>
        <mxCell id="UfsnAwQ9ihBSdZ9u-ify-39" value="" style="shape=partialRectangle;html=1;whiteSpace=wrap;connectable=0;strokeColor=inherit;overflow=hidden;fillColor=none;top=0;left=0;bottom=0;right=0;pointerEvents=1;" vertex="1" parent="UfsnAwQ9ihBSdZ9u-ify-34">
          <mxGeometry x="393" width="80" height="39" as="geometry">
            <mxRectangle width="80" height="39" as="alternateBounds" />
          </mxGeometry>
        </mxCell>
        <mxCell id="UfsnAwQ9ihBSdZ9u-ify-40" value="W" style="shape=partialRectangle;html=1;whiteSpace=wrap;connectable=0;strokeColor=#82b366;overflow=hidden;fillColor=#d5e8d4;top=0;left=0;bottom=0;right=0;pointerEvents=1;" vertex="1" parent="UfsnAwQ9ihBSdZ9u-ify-34">
          <mxGeometry x="473" width="79" height="39" as="geometry">
            <mxRectangle width="79" height="39" as="alternateBounds" />
          </mxGeometry>
        </mxCell>
        <mxCell id="UfsnAwQ9ihBSdZ9u-ify-42" value="" style="shape=tableRow;horizontal=0;startSize=0;swimlaneHead=0;swimlaneBody=0;strokeColor=inherit;top=0;left=0;bottom=0;right=0;collapsible=0;dropTarget=0;fillColor=none;points=[[0,0.5],[1,0.5]];portConstraint=eastwest;" vertex="1" parent="UfsnAwQ9ihBSdZ9u-ify-1">
          <mxGeometry y="193" width="552" height="38" as="geometry" />
        </mxCell>
        <mxCell id="UfsnAwQ9ihBSdZ9u-ify-63" value="4" style="shape=partialRectangle;html=1;whiteSpace=wrap;connectable=0;strokeColor=inherit;overflow=hidden;fillColor=none;top=0;left=0;bottom=0;right=0;pointerEvents=1;" vertex="1" parent="UfsnAwQ9ihBSdZ9u-ify-42">
          <mxGeometry width="78" height="38" as="geometry">
            <mxRectangle width="78" height="38" as="alternateBounds" />
          </mxGeometry>
        </mxCell>
        <mxCell id="UfsnAwQ9ihBSdZ9u-ify-43" value="" style="shape=partialRectangle;html=1;whiteSpace=wrap;connectable=0;strokeColor=inherit;overflow=hidden;fillColor=none;top=0;left=0;bottom=0;right=0;pointerEvents=1;" vertex="1" parent="UfsnAwQ9ihBSdZ9u-ify-42">
          <mxGeometry x="78" width="80" height="38" as="geometry">
            <mxRectangle width="80" height="38" as="alternateBounds" />
          </mxGeometry>
        </mxCell>
        <mxCell id="UfsnAwQ9ihBSdZ9u-ify-44" value="" style="shape=partialRectangle;html=1;whiteSpace=wrap;connectable=0;strokeColor=inherit;overflow=hidden;fillColor=none;top=0;left=0;bottom=0;right=0;pointerEvents=1;" vertex="1" parent="UfsnAwQ9ihBSdZ9u-ify-42">
          <mxGeometry x="158" width="79" height="38" as="geometry">
            <mxRectangle width="79" height="38" as="alternateBounds" />
          </mxGeometry>
        </mxCell>
        <mxCell id="UfsnAwQ9ihBSdZ9u-ify-45" value="" style="shape=partialRectangle;html=1;whiteSpace=wrap;connectable=0;strokeColor=inherit;overflow=hidden;fillColor=none;top=0;left=0;bottom=0;right=0;pointerEvents=1;" vertex="1" parent="UfsnAwQ9ihBSdZ9u-ify-42">
          <mxGeometry x="237" width="78" height="38" as="geometry">
            <mxRectangle width="78" height="38" as="alternateBounds" />
          </mxGeometry>
        </mxCell>
        <mxCell id="UfsnAwQ9ihBSdZ9u-ify-46" value="W" style="shape=partialRectangle;html=1;whiteSpace=wrap;connectable=0;strokeColor=#b85450;overflow=hidden;fillColor=#f8cecc;top=0;left=0;bottom=0;right=0;pointerEvents=1;" vertex="1" parent="UfsnAwQ9ihBSdZ9u-ify-42">
          <mxGeometry x="315" width="78" height="38" as="geometry">
            <mxRectangle width="78" height="38" as="alternateBounds" />
          </mxGeometry>
        </mxCell>
        <mxCell id="UfsnAwQ9ihBSdZ9u-ify-47" value="C" style="shape=partialRectangle;html=1;whiteSpace=wrap;connectable=0;strokeColor=#d6b656;overflow=hidden;fillColor=#fff2cc;top=0;left=0;bottom=0;right=0;pointerEvents=1;" vertex="1" parent="UfsnAwQ9ihBSdZ9u-ify-42">
          <mxGeometry x="393" width="80" height="38" as="geometry">
            <mxRectangle width="80" height="38" as="alternateBounds" />
          </mxGeometry>
        </mxCell>
        <mxCell id="UfsnAwQ9ihBSdZ9u-ify-48" value="C" style="shape=partialRectangle;html=1;whiteSpace=wrap;connectable=0;strokeColor=#82b366;overflow=hidden;fillColor=#d5e8d4;top=0;left=0;bottom=0;right=0;pointerEvents=1;" vertex="1" parent="UfsnAwQ9ihBSdZ9u-ify-42">
          <mxGeometry x="473" width="79" height="38" as="geometry">
            <mxRectangle width="79" height="38" as="alternateBounds" />
          </mxGeometry>
        </mxCell>
        <mxCell id="UfsnAwQ9ihBSdZ9u-ify-50" value="" style="shape=tableRow;horizontal=0;startSize=0;swimlaneHead=0;swimlaneBody=0;strokeColor=inherit;top=0;left=0;bottom=0;right=0;collapsible=0;dropTarget=0;fillColor=none;points=[[0,0.5],[1,0.5]];portConstraint=eastwest;" vertex="1" parent="UfsnAwQ9ihBSdZ9u-ify-1">
          <mxGeometry y="231" width="552" height="39" as="geometry" />
        </mxCell>
        <mxCell id="UfsnAwQ9ihBSdZ9u-ify-64" value="5" style="shape=partialRectangle;html=1;whiteSpace=wrap;connectable=0;strokeColor=inherit;overflow=hidden;fillColor=none;top=0;left=0;bottom=0;right=0;pointerEvents=1;" vertex="1" parent="UfsnAwQ9ihBSdZ9u-ify-50">
          <mxGeometry width="78" height="39" as="geometry">
            <mxRectangle width="78" height="39" as="alternateBounds" />
          </mxGeometry>
        </mxCell>
        <mxCell id="UfsnAwQ9ihBSdZ9u-ify-51" value="C" style="shape=partialRectangle;html=1;whiteSpace=wrap;connectable=0;strokeColor=#b85450;overflow=hidden;fillColor=#f8cecc;top=0;left=0;bottom=0;right=0;pointerEvents=1;" vertex="1" parent="UfsnAwQ9ihBSdZ9u-ify-50">
          <mxGeometry x="78" width="80" height="39" as="geometry">
            <mxRectangle width="80" height="39" as="alternateBounds" />
          </mxGeometry>
        </mxCell>
        <mxCell id="UfsnAwQ9ihBSdZ9u-ify-52" value="" style="shape=partialRectangle;html=1;whiteSpace=wrap;connectable=0;strokeColor=inherit;overflow=hidden;fillColor=none;top=0;left=0;bottom=0;right=0;pointerEvents=1;" vertex="1" parent="UfsnAwQ9ihBSdZ9u-ify-50">
          <mxGeometry x="158" width="79" height="39" as="geometry">
            <mxRectangle width="79" height="39" as="alternateBounds" />
          </mxGeometry>
        </mxCell>
        <mxCell id="UfsnAwQ9ihBSdZ9u-ify-53" value="W" style="shape=partialRectangle;html=1;whiteSpace=wrap;connectable=0;strokeColor=#82b366;overflow=hidden;fillColor=#d5e8d4;top=0;left=0;bottom=0;right=0;pointerEvents=1;" vertex="1" parent="UfsnAwQ9ihBSdZ9u-ify-50">
          <mxGeometry x="237" width="78" height="39" as="geometry">
            <mxRectangle width="78" height="39" as="alternateBounds" />
          </mxGeometry>
        </mxCell>
        <mxCell id="UfsnAwQ9ihBSdZ9u-ify-54" value="" style="shape=partialRectangle;html=1;whiteSpace=wrap;connectable=0;strokeColor=inherit;overflow=hidden;fillColor=none;top=0;left=0;bottom=0;right=0;pointerEvents=1;" vertex="1" parent="UfsnAwQ9ihBSdZ9u-ify-50">
          <mxGeometry x="315" width="78" height="39" as="geometry">
            <mxRectangle width="78" height="39" as="alternateBounds" />
          </mxGeometry>
        </mxCell>
        <mxCell id="UfsnAwQ9ihBSdZ9u-ify-55" value="" style="shape=partialRectangle;html=1;whiteSpace=wrap;connectable=0;strokeColor=inherit;overflow=hidden;fillColor=none;top=0;left=0;bottom=0;right=0;pointerEvents=1;" vertex="1" parent="UfsnAwQ9ihBSdZ9u-ify-50">
          <mxGeometry x="393" width="80" height="39" as="geometry">
            <mxRectangle width="80" height="39" as="alternateBounds" />
          </mxGeometry>
        </mxCell>
        <mxCell id="UfsnAwQ9ihBSdZ9u-ify-56" value="" style="shape=partialRectangle;html=1;whiteSpace=wrap;connectable=0;strokeColor=inherit;overflow=hidden;fillColor=none;top=0;left=0;bottom=0;right=0;pointerEvents=1;" vertex="1" parent="UfsnAwQ9ihBSdZ9u-ify-50">
          <mxGeometry x="473" width="79" height="39" as="geometry">
            <mxRectangle width="79" height="39" as="alternateBounds" />
          </mxGeometry>
        </mxCell>
        <mxCell id="UfsnAwQ9ihBSdZ9u-ify-65" style="shape=tableRow;horizontal=0;startSize=0;swimlaneHead=0;swimlaneBody=0;strokeColor=inherit;top=0;left=0;bottom=0;right=0;collapsible=0;dropTarget=0;fillColor=none;points=[[0,0.5],[1,0.5]];portConstraint=eastwest;" vertex="1" parent="UfsnAwQ9ihBSdZ9u-ify-1">
          <mxGeometry y="270" width="552" height="39" as="geometry" />
        </mxCell>
        <mxCell id="UfsnAwQ9ihBSdZ9u-ify-66" value="6" style="shape=partialRectangle;html=1;whiteSpace=wrap;connectable=0;strokeColor=inherit;overflow=hidden;fillColor=none;top=0;left=0;bottom=0;right=0;pointerEvents=1;" vertex="1" parent="UfsnAwQ9ihBSdZ9u-ify-65">
          <mxGeometry width="78" height="39" as="geometry">
            <mxRectangle width="78" height="39" as="alternateBounds" />
          </mxGeometry>
        </mxCell>
        <mxCell id="UfsnAwQ9ihBSdZ9u-ify-67" value="W" style="shape=partialRectangle;html=1;whiteSpace=wrap;connectable=0;strokeColor=#b85450;overflow=hidden;fillColor=#f8cecc;top=0;left=0;bottom=0;right=0;pointerEvents=1;" vertex="1" parent="UfsnAwQ9ihBSdZ9u-ify-65">
          <mxGeometry x="78" width="80" height="39" as="geometry">
            <mxRectangle width="80" height="39" as="alternateBounds" />
          </mxGeometry>
        </mxCell>
        <mxCell id="UfsnAwQ9ihBSdZ9u-ify-68" value="C" style="shape=partialRectangle;html=1;whiteSpace=wrap;connectable=0;strokeColor=#d6b656;overflow=hidden;fillColor=#fff2cc;top=0;left=0;bottom=0;right=0;pointerEvents=1;" vertex="1" parent="UfsnAwQ9ihBSdZ9u-ify-65">
          <mxGeometry x="158" width="79" height="39" as="geometry">
            <mxRectangle width="79" height="39" as="alternateBounds" />
          </mxGeometry>
        </mxCell>
        <mxCell id="UfsnAwQ9ihBSdZ9u-ify-69" value="C" style="shape=partialRectangle;html=1;whiteSpace=wrap;connectable=0;strokeColor=#82b366;overflow=hidden;fillColor=#d5e8d4;top=0;left=0;bottom=0;right=0;pointerEvents=1;" vertex="1" parent="UfsnAwQ9ihBSdZ9u-ify-65">
          <mxGeometry x="237" width="78" height="39" as="geometry">
            <mxRectangle width="78" height="39" as="alternateBounds" />
          </mxGeometry>
        </mxCell>
        <mxCell id="UfsnAwQ9ihBSdZ9u-ify-70" style="shape=partialRectangle;html=1;whiteSpace=wrap;connectable=0;strokeColor=inherit;overflow=hidden;fillColor=none;top=0;left=0;bottom=0;right=0;pointerEvents=1;" vertex="1" parent="UfsnAwQ9ihBSdZ9u-ify-65">
          <mxGeometry x="315" width="78" height="39" as="geometry">
            <mxRectangle width="78" height="39" as="alternateBounds" />
          </mxGeometry>
        </mxCell>
        <mxCell id="UfsnAwQ9ihBSdZ9u-ify-71" style="shape=partialRectangle;html=1;whiteSpace=wrap;connectable=0;strokeColor=inherit;overflow=hidden;fillColor=none;top=0;left=0;bottom=0;right=0;pointerEvents=1;" vertex="1" parent="UfsnAwQ9ihBSdZ9u-ify-65">
          <mxGeometry x="393" width="80" height="39" as="geometry">
            <mxRectangle width="80" height="39" as="alternateBounds" />
          </mxGeometry>
        </mxCell>
        <mxCell id="UfsnAwQ9ihBSdZ9u-ify-72" style="shape=partialRectangle;html=1;whiteSpace=wrap;connectable=0;strokeColor=inherit;overflow=hidden;fillColor=none;top=0;left=0;bottom=0;right=0;pointerEvents=1;" vertex="1" parent="UfsnAwQ9ihBSdZ9u-ify-65">
          <mxGeometry x="473" width="79" height="39" as="geometry">
            <mxRectangle width="79" height="39" as="alternateBounds" />
          </mxGeometry>
        </mxCell>
        <mxCell id="UfsnAwQ9ihBSdZ9u-ify-73" style="shape=tableRow;horizontal=0;startSize=0;swimlaneHead=0;swimlaneBody=0;strokeColor=inherit;top=0;left=0;bottom=0;right=0;collapsible=0;dropTarget=0;fillColor=none;points=[[0,0.5],[1,0.5]];portConstraint=eastwest;" vertex="1" parent="UfsnAwQ9ihBSdZ9u-ify-1">
          <mxGeometry y="309" width="552" height="39" as="geometry" />
        </mxCell>
        <mxCell id="UfsnAwQ9ihBSdZ9u-ify-74" value="7" style="shape=partialRectangle;html=1;whiteSpace=wrap;connectable=0;strokeColor=inherit;overflow=hidden;fillColor=none;top=0;left=0;bottom=0;right=0;pointerEvents=1;" vertex="1" parent="UfsnAwQ9ihBSdZ9u-ify-73">
          <mxGeometry width="78" height="39" as="geometry">
            <mxRectangle width="78" height="39" as="alternateBounds" />
          </mxGeometry>
        </mxCell>
        <mxCell id="UfsnAwQ9ihBSdZ9u-ify-75" style="shape=partialRectangle;html=1;whiteSpace=wrap;connectable=0;strokeColor=inherit;overflow=hidden;fillColor=none;top=0;left=0;bottom=0;right=0;pointerEvents=1;" vertex="1" parent="UfsnAwQ9ihBSdZ9u-ify-73">
          <mxGeometry x="78" width="80" height="39" as="geometry">
            <mxRectangle width="80" height="39" as="alternateBounds" />
          </mxGeometry>
        </mxCell>
        <mxCell id="UfsnAwQ9ihBSdZ9u-ify-76" style="shape=partialRectangle;html=1;whiteSpace=wrap;connectable=0;strokeColor=inherit;overflow=hidden;fillColor=none;top=0;left=0;bottom=0;right=0;pointerEvents=1;" vertex="1" parent="UfsnAwQ9ihBSdZ9u-ify-73">
          <mxGeometry x="158" width="79" height="39" as="geometry">
            <mxRectangle width="79" height="39" as="alternateBounds" />
          </mxGeometry>
        </mxCell>
        <mxCell id="UfsnAwQ9ihBSdZ9u-ify-77" style="shape=partialRectangle;html=1;whiteSpace=wrap;connectable=0;strokeColor=inherit;overflow=hidden;fillColor=none;top=0;left=0;bottom=0;right=0;pointerEvents=1;" vertex="1" parent="UfsnAwQ9ihBSdZ9u-ify-73">
          <mxGeometry x="237" width="78" height="39" as="geometry">
            <mxRectangle width="78" height="39" as="alternateBounds" />
          </mxGeometry>
        </mxCell>
        <mxCell id="UfsnAwQ9ihBSdZ9u-ify-78" value="C" style="shape=partialRectangle;html=1;whiteSpace=wrap;connectable=0;strokeColor=#b85450;overflow=hidden;fillColor=#f8cecc;top=0;left=0;bottom=0;right=0;pointerEvents=1;" vertex="1" parent="UfsnAwQ9ihBSdZ9u-ify-73">
          <mxGeometry x="315" width="78" height="39" as="geometry">
            <mxRectangle width="78" height="39" as="alternateBounds" />
          </mxGeometry>
        </mxCell>
        <mxCell id="UfsnAwQ9ihBSdZ9u-ify-79" style="shape=partialRectangle;html=1;whiteSpace=wrap;connectable=0;strokeColor=inherit;overflow=hidden;fillColor=none;top=0;left=0;bottom=0;right=0;pointerEvents=1;" vertex="1" parent="UfsnAwQ9ihBSdZ9u-ify-73">
          <mxGeometry x="393" width="80" height="39" as="geometry">
            <mxRectangle width="80" height="39" as="alternateBounds" />
          </mxGeometry>
        </mxCell>
        <mxCell id="UfsnAwQ9ihBSdZ9u-ify-80" value="W" style="shape=partialRectangle;html=1;whiteSpace=wrap;connectable=0;strokeColor=#82b366;overflow=hidden;fillColor=#d5e8d4;top=0;left=0;bottom=0;right=0;pointerEvents=1;" vertex="1" parent="UfsnAwQ9ihBSdZ9u-ify-73">
          <mxGeometry x="473" width="79" height="39" as="geometry">
            <mxRectangle width="79" height="39" as="alternateBounds" />
          </mxGeometry>
        </mxCell>
      </root>
    </mxGraphModel>
  </diagram>
</mxfile>
